<svg id="_10758456741668604885" data-name="10758456741668604885" xmlns="http://www.w3.org/2000/svg" xmlns:xlink="http://www.w3.org/1999/xlink" width="1634.57" height="1663.002" viewBox="0 0 1634.57 1663.002">
  <defs>
    <clipPath id="clip-path">
      <path id="Path_24" data-name="Path 24" d="M817.285,0c451.376,0,817.285,372.274,817.285,831.5S1268.661,1663,817.285,1663,0,1290.728,0,831.5,365.909,0,817.285,0Z"/>
    </clipPath>
  </defs>
  <path id="Path_23" data-name="Path 23" d="M817.285,0c451.376,0,817.285,372.274,817.285,831.5S1268.661,1663,817.285,1663,0,1290.728,0,831.5,365.909,0,817.285,0Z" fill="#0051e9" fill-rule="evenodd"/>
  <g id="Group_8" data-name="Group 8" clip-path="url(#clip-path)">
    <g id="_260284984" transform="translate(352.341 414.522)">
      <g id="Group_7" data-name="Group 7" transform="translate(2.657 0)">
        <path id="_2620238721" d="M359.277,459.05,2422.245,2557.9l-5.648-5.58-5.63-5.488-5.594-5.34-5.485-5.155-5.376-4.934-5.212-4.712-5.031-4.416-4.831-4.1-4.559-3.751-4.286-3.381-3.977-2.975-3.614-2.513-3.251-2.051-2.833-1.533-2.379-.979L291.555,402.124l2.388.987,2.831,1.532,3.245,2.046,3.623,2.522,3.972,2.968,4.286,3.381,4.57,3.76,4.817,4.106,5.034,4.416,5.222,4.7,5.372,4.943,5.49,5.155,5.579,5.336,5.63,5.48Z" transform="translate(-117.034 -73.609)" fill="#0051e9" fill-rule="evenodd"/>
        <path id="_262023560" d="M432.188,261.508,2495.165,2360.369l1.2,2.827,1.725,3.234,2.216,3.6,2.688,3.954,3.106,4.25,3.505,4.546,3.868,4.786,4.177,5.026,4.486,5.192,4.74,5.359,4.976,5.488,5.176,5.58,5.322,5.636L479.382,320.992l-5.331-5.643-5.169-5.578-4.973-5.484-4.748-5.359-4.482-5.2-4.19-5.013-3.863-4.793-3.5-4.542-3.107-4.263-2.679-3.949-2.223-3.607-1.727-3.23Z" transform="translate(-2.251 -192.82)" fill="#0051e9" fill-rule="evenodd"/>
        <path id="_262023800" d="M621.2,335.963,2684.171,2434.814l-254.92,259.354L366.283,595.317Z" transform="translate(-56.042 -129.699)" fill="#0051e9" fill-rule="evenodd"/>
        <path id="_262023488" d="M684.718,686.252,2747.691,2785.12l-3.868-.074-3.868-.24-3.832-.443-3.814-.609-3.8-.776-3.741-.979-3.705-1.165-3.633-1.349-3.6-1.534-3.505-1.718-3.433-1.9-3.36-2.088-3.269-2.272-3.178-2.476-3.051-2.661-2.96-2.846L628.113,663.131l2.951,2.847,3.062,2.659,3.169,2.469,3.269,2.278,3.356,2.09,3.438,1.907,3.514,1.715,3.581,1.532,3.645,1.345,3.7,1.16,3.745.976,3.787.793,3.814.61,3.845.429,3.859.246Z" transform="translate(157.661 147.668)" fill="#0051e9" fill-rule="evenodd"/>
        <path id="_262024448" d="M465.27,224.335,2528.243,2323.2v.037L465.27,224.372Z" transform="translate(24.751 -224.335)" fill="#0051e9" fill-rule="evenodd"/>
        <path id="_262024496" d="M536.459,285.063,2599.434,2383.914l1.616,1.737,1.508,1.792,1.417,1.866,1.308,1.9,1.2,1.959,1.089,2.014,1,2.032.89,2.088.781,2.125.672,2.144.581,2.18.472,2.2.363,2.2.254,2.236.164,2.217.055,2.236L549.823,317.989l-.051-2.236-.156-2.232-.261-2.217-.363-2.217-.47-2.2-.572-2.171-.681-2.151-.783-2.118-.888-2.084-.99-2.049-1.09-2.007-1.2-1.961-1.306-1.907L539.6,288.6l-1.524-1.8Z" transform="translate(82.854 -172.851)" fill="#0051e9" fill-rule="evenodd"/>
        <path id="_262024328" d="M549.822,302.882,2612.8,2401.735l-.054,2.236-.164,2.236-.254,2.217-.363,2.217-.472,2.2-.581,2.162-.672,2.162-.781,2.106-.89,2.088-1,2.051-1.09,2.014-1.2,1.959-1.308,1.9-1.417,1.848-1.508,1.792-1.616,1.737L536.46,335.806l1.618-1.733,1.515-1.792L541,330.432l1.3-1.911,1.2-1.957,1.09-2.009.99-2.047.888-2.086.783-2.119.679-2.147.574-2.173.47-2.193.363-2.217.262-2.217.156-2.234Z" transform="translate(82.855 -157.744)" fill="#0051e9" fill-rule="evenodd"/>
        <path id="_262024232" d="M551,320.7,2613.977,2419.557l-1.707,1.644-1.761,1.552-1.816,1.423-1.871,1.331-1.925,1.219-1.98,1.127-2.016,1-2.052.905-2.071.795-2.125.7-2.125.573-2.161.48-2.179.37-2.179.277-2.2.148-2.2.055L518.641,334.3l2.2-.052,2.2-.159,2.179-.266,2.179-.37,2.158-.479,2.134-.582,2.112-.693,2.083-.8,2.049-.9,2.014-1.007,1.972-1.109,1.925-1.221,1.876-1.327,1.816-1.434,1.762-1.541Z" transform="translate(68.311 -142.639)" fill="#0051e9" fill-rule="evenodd"/>
        <path id="_262024736" d="M533.185,334.3,2596.156,2433.156l-2.2-.055-2.2-.148-2.18-.277-2.179-.369-2.143-.48-2.143-.573-2.107-.7-2.088-.795-2.052-.905-2.016-1-1.961-1.127-1.925-1.219-1.889-1.33-1.816-1.423-1.762-1.552-1.707-1.645L500.822,320.7l1.7,1.646,1.764,1.541,1.816,1.434,1.876,1.327,1.925,1.221,1.972,1.109,2.014,1.007,2.049.9,2.081.8,2.114.693,2.134.582,2.158.479,2.179.37,2.179.266,2.194.159Z" transform="translate(53.768 -142.639)" fill="#0051e9" fill-rule="evenodd"/>
        <path id="_262024904" d="M544.383,365.945,2607.352,2464.8l-96.93-98.616L447.451,267.331Z" transform="translate(10.207 -187.884)" fill="#0051e9" fill-rule="evenodd"/>
        <path id="_262024256" d="M721.864,660.361,2784.839,2759.216l-3.069,3.252-3.215,3.067-3.378,2.882-3.487,2.7-3.633,2.495-3.741,2.31-3.85,2.125-3.959,1.9-4.05,1.7-4.123,1.5-4.214,1.275-4.268,1.072-4.341.831-4.377.61-4.431.388-4.45.148L659.28,688.6l4.457-.146,4.422-.382,4.381-.612,4.333-.837,4.274-1.061,4.206-1.281,4.132-1.491,4.047-1.7,3.954-1.911,3.856-2.114,3.743-2.31,3.632-2.506,3.5-2.7,3.365-2.883,3.22-3.064Z" transform="translate(183.099 145.319)" fill="#0051e9" fill-rule="evenodd"/>
        <path id="_262024808" d="M693.611,597.945,2756.583,2696.811l2.779,2.975,2.579,3.1,2.4,3.215,2.216,3.308,2.034,3.381,1.853,3.492,1.671,3.548,1.471,3.622,1.308,3.7,1.126,3.733.963,3.788.763,3.825.581,3.862.418,3.88.254,3.917.055,3.9L716.074,655.2l-.062-3.914-.238-3.9-.416-3.88-.592-3.86L714,635.821l-.948-3.788-1.128-3.74-1.308-3.685-1.486-3.625-1.669-3.555-1.849-3.479-2.034-3.394-2.216-3.306-2.4-3.206-2.583-3.1Z" transform="translate(211.12 92.404)" fill="#0051e9" fill-rule="evenodd"/>
        <path id="_262024568" d="M715.969,628.933,2778.944,2727.784l-.109,3.917-.291,3.9-.454,3.9-.636,3.88-.8,3.843-.98,3.825-1.144,3.77-1.308,3.733-1.471,3.7-1.653,3.6-1.816,3.548-1.98,3.474-2.161,3.4-2.307,3.289-2.488,3.215-2.633,3.086L693.739,687.005l2.643-3.1,2.479-3.2,2.314-3.3,2.15-3.392,1.981-3.472,1.816-3.55,1.651-3.616,1.482-3.681,1.309-3.731,1.144-3.781.974-3.819.8-3.853.628-3.88.459-3.893.285-3.9Z" transform="translate(211.225 118.675)" fill="#0051e9" fill-rule="evenodd"/>
        <path id="_262024640" d="M297.648,417.131,2360.625,2515.986l96.93,98.616,2.525,2.79,2.252,2.883,1.979,2.975,1.707,3.086,1.435,3.141,1.2,3.215.926,3.252.69,3.289.436,3.308.218,3.326-.036,3.308-.254,3.289-.49,3.271-.69,3.215-.926,3.16-1.108,3.086-1.326,2.993-1.526,2.9-1.725,2.79-1.889,2.679-2.089,2.531-2.27,2.365-2.452,2.217-2.6,2.032-2.779,1.848-2.924,1.645-3.087,1.441-3.233,1.2-3.378.942-3.523.7-3.651.425-3.778.148-2.2-.055-2.2-.148-2.179-.277-2.179-.369-2.143-.48-2.143-.573-2.107-.7-2.089-.794-2.052-.906-2.016-1-1.961-1.127-1.925-1.22-1.871-1.33-1.834-1.423-1.761-1.552-1.707-1.645L329.858,581.6l1.7,1.646,1.764,1.541,1.816,1.434,1.876,1.327,1.925,1.222,1.972,1.109,2.014,1.007,2.049.9,2.081.8,2.114.693,2.134.582,2.158.479,2.18.37,2.179.266,2.2.159,2.2.052,3.778-.146,3.651-.427,3.516-.7,3.376-.953,3.235-1.2,3.088-1.426,2.93-1.645,2.773-1.848,2.608-2.033,2.441-2.217,2.268-2.378,2.087-2.53,1.905-2.668,1.716-2.79,1.522-2.9,1.326-3,1.121-3.086.908-3.156.7-3.217.481-3.261.256-3.293.031-3.313-.2-3.317-.445-3.311-.685-3.289-.932-3.256-1.188-3.208-1.453-3.141-1.707-3.077-1.976-2.986-2.232-2.894-2.526-2.772Z" transform="translate(-112.061 -60.886)" fill="#0051e9" fill-rule="evenodd"/>
        <path id="_262024712" d="M388.954,562.054,2451.92,2660.922l2.561,2.846,2.288,3.1,1.979,3.326,1.671,3.511,1.344,3.7.981,3.843.6,3.973.2,4.1L400.574,590.465l-.207-4.1-.6-3.982-.979-3.849-1.335-3.7-1.671-3.511-2-3.317-2.283-3.1Z" transform="translate(-37.538 61.977)" fill="#0051e9" fill-rule="evenodd"/>
        <path id="_262025000" d="M395.352,577.43l2062.97,2098.857v3.308L395.352,580.741Z" transform="translate(-32.316 75.012)" fill="#0051e9" fill-rule="evenodd"/>
        <path id="_262000208" d="M505.072,579.221,2568.047,2678.076h-7.882l-7.864.019h-15.746l-7.864.019h-55.1l-7.882.018h-47.221l-7.882-.018h-55.1l-7.864-.019h-15.747l-7.864-.019h-7.882L253.172,579.221h251.9Z" transform="translate(-148.362 76.53)" fill="#0051e9" fill-rule="evenodd"/>
        <path id="_261999824" d="M256.046,579.221l2062.97,2098.855h-6.393L249.651,579.223Z" transform="translate(-151.235 76.53)" fill="#0051e9" fill-rule="evenodd"/>
        <path id="_262000088" d="M201.887,667.533,2264.86,2766.388l-1.834-.185-1.707-.536-1.544-.85-1.344-1.127L195.463,664.826l1.346,1.129,1.542.85,1.705.54Z" transform="translate(-195.463 149.105)" fill="#0051e9" fill-rule="evenodd"/>
        <path id="_261999680" d="M440.957,600.089,2503.936,2698.948l2.942,3.012,2.724,3.308,2.506,3.6,2.252,3.917,2,4.231,1.725,4.583,1.435,4.934,1.144,5.3.835,5.672.509,6.061.164,6.486L459.2,651.191l-.182-6.467-.51-6.07-.832-5.677-1.144-5.3-1.438-4.934-1.725-4.581-2-4.25L449.115,610l-2.5-3.6-2.724-3.3Z" transform="translate(4.907 94.222)" fill="#0051e9" fill-rule="evenodd"/>
        <path id="_262000280" d="M398.195,579.223l2062.97,2098.853h-6.32L391.869,579.221Z" transform="translate(-35.159 76.53)" fill="#0051e9" fill-rule="evenodd"/>
        <path id="_261999776" d="M451,627.745,2513.973,2726.611v61.975L451,689.729Z" transform="translate(13.104 117.668)" fill="#0051e9" fill-rule="evenodd"/>
        <path id="_261999896" d="M455.081,661.29,2518.054,2760.147l-.182,1.866-.527,1.737-.835,1.571-1.108,1.367-1.344,1.127-1.544.85-1.707.536-1.834.185L446,670.531l1.829-.185,1.705-.54,1.544-.85,1.344-1.129,1.11-1.369.835-1.569.53-1.735Z" transform="translate(9.023 146.107)" fill="#0051e9" fill-rule="evenodd"/>
        <path id="_261999752" d="M647.6,666.291,2710.572,2765.146h-448.6L199,666.291Z" transform="translate(-192.576 150.347)" fill="#0051e9" fill-rule="evenodd"/>
      </g>
      <path id="_260284312" d="M688.236,531.593,1098.6,911.985c.932.863,1.852,1.894,2.786,2.7a80.629,80.629,0,0,1,22.464,57.261c-.154,47.6-38.034,86.142-84.816,86.31a78.046,78.046,0,0,1-56.605-23.121C856.072,906.578,727.872,753.4,605.236,616.035l83-84.444ZM654.317,237.931a45.25,45.25,0,0,1,32.361-13.6v.037a45.213,45.213,0,0,1,32.361,13.559l96.93,98.614a47.137,47.137,0,0,1,0,65.85,45.217,45.217,0,0,1-64.726,0L654.315,303.78a47.237,47.237,0,0,1,0-65.849Zm-27.724,55.092c9.889,27.868,115.246,130.243,135.226,137.578L506.9,689.955c-8.3-23.371-112.745-129.6-135.72-137.105L626.594,293.023ZM479.178,679.194c28.456,28.949,8.612,79.455-32.361,79.455a45.247,45.247,0,0,1-32.363-13.6l-96.936-98.62a47.038,47.038,0,0,1-13.36-32.924c0-45.056,53.714-57.725,78.085-32.927ZM194,969.75c0-71.247,59.725-71.215,107.457-71.186q125.962.1,251.925,0c47.711-.039,107.379-.066,107.379,71.186v61.982a9.161,9.161,0,0,1-9.081,9.239h-448.6a9.161,9.161,0,0,1-9.081-9.239Zm140.618-133.2H520.148c21.812.069,39.478,18.042,39.546,40.234v3.311h-6.326q-125.949.089-251.905,0h-6.395v-3.311c.061-22.193,17.728-40.17,39.542-40.234Z" transform="translate(-194 -224.335)" fill="#0051e9" fill-rule="evenodd"/>
    </g>
  </g>
  <path id="Path_25" data-name="Path 25" d="M817.285,0c451.376,0,817.285,372.274,817.285,831.5S1268.661,1663,817.285,1663,0,1290.728,0,831.5,365.909,0,817.285,0Z" fill="none" fill-rule="evenodd"/>
  <path id="Path_26" data-name="Path 26" d="M420.429,436.319C487.953,510.66,558.54,593.558,628.113,663.131a43.36,43.36,0,0,0,31.167,12.513,46.865,46.865,0,0,0,46.7-46.71,43.233,43.233,0,0,0-12.369-30.989c-.514-.436-1.022-.995-1.534-1.461L466.129,390.62l-45.7,45.7Z" transform="translate(502.625 484.648)" fill="#fffffe"/>
  <path id="Path_27" data-name="Path 27" d="M447.451,231.694h0a25.131,25.131,0,0,1,17.818-7.358v.02a25.111,25.111,0,0,1,17.817,7.337h0l53.371,53.369A25.2,25.2,0,1,1,500.82,320.7L447.451,267.33A25.252,25.252,0,0,1,447.451,231.694Z" transform="translate(406 214.967)" fill="#fffffe"/>
  <path id="Path_28" data-name="Path 28" d="M297.648,417.131,351.02,470.5a25.2,25.2,0,1,1-35.637,35.639l-53.371-53.37h0a4.423,4.423,0,0,1-.3-.33,25.106,25.106,0,0,1-7.054-17.489c0-24.384,29.575-31.24,42.994-17.82Z" transform="translate(234.93 392.936)" fill="#fffffe"/>
  <path id="Path_29" data-name="Path 29" d="M366.283,476.323l140.36-140.36c-11-3.97-69.011-59.374-74.456-74.456L291.555,402.124c12.651,4.059,70.16,61.551,74.728,74.2Z" transform="translate(312.694 291.208)" fill="#fffffe"/>
  <path id="Path_30" data-name="Path 30" d="M253.165,589.22C226.884,589.2,194,589.187,194,627.745V661.29a5,5,0,0,0,5,5H446a5,5,0,0,0,5-5V627.745c0-38.561-32.856-38.542-59.127-38.525q-69.355.053-138.711,0Z" transform="translate(221.628 546.311)" fill="#fffffe"/>
  <path id="Path_31" data-name="Path 31" d="M249.651,579.222V577.43a21.835,21.835,0,0,1,21.772-21.774H373.578a21.842,21.842,0,0,1,21.774,21.774v1.792h-3.483q-69.348.048-138.7,0h-3.521Z" transform="translate(243.119 483.754)" fill="#fffffe"/>
</svg>
