<svg xmlns="http://www.w3.org/2000/svg" xmlns:xlink="http://www.w3.org/1999/xlink" width="4580" height="3812" viewBox="0 0 4580 3812">
  <defs>
    <clipPath id="clip-path">
      <rect id="Rectangle_2" data-name="Rectangle 2" width="4580" height="3812" transform="translate(2357 -316)" fill="#fff" stroke="#707070" stroke-width="1"/>
    </clipPath>
  </defs>
  <g id="Mask_Group_3" data-name="Mask Group 3" transform="translate(-2357 316)" clip-path="url(#clip-path)">
    <g id="_177699261816276584443773" data-name="177699261816276584443773" transform="translate(2484.757 -572.072)">
      <path id="Path_54" data-name="Path 54" d="M4160.622,870.231a135.178,135.178,0,0,0-106.752-52.7H963.47L803.342,347.96a135.133,135.133,0,0,0-127.7-91.888H270.258a135.129,135.129,0,0,0,0,270.258h308.77L1467.5,3137.7a135.13,135.13,0,0,0,127.7,91.212H3513.354a135.129,135.129,0,0,0,0-270.258H1689.112l-98.644-291.2H3648.483a135.106,135.106,0,0,0,131.075-100L4184.945,987.793a135.159,135.159,0,0,0-24.323-117.562Z" fill="#0051e9"/>
      <path id="Path_55" data-name="Path 55" d="M2026.928,3343.781c-478.357,14.864-478.357,708.752,0,724.292C2505.285,4053.883,2505.285,3358.645,2026.928,3343.781Z" fill="#0051e9"/>
      <path id="Path_56" data-name="Path 56" d="M3203.24,3343.781c-478.356,14.864-478.356,708.752,0,724.292C3681.6,4053.883,3681.6,3358.645,3203.24,3343.781Z" fill="#0843b2"/>
    </g>
  </g>
</svg>
