<svg width="286" height="234" viewBox="0 0 286 234" fill="none" xmlns="http://www.w3.org/2000/svg">
<path d="M198.722 60.3739C194.193 53.1147 190.896 44.2186 191.748 35.2439C192.622 26.295 198.632 17.6631 206.279 17.1881C210.943 16.8975 215.203 19.5114 218.904 22.5997C222.222 25.3708 223.209 28.4069 225.384 32.2607C230.16 40.7076 236.954 47.6504 244.691 52.1113C249.669 54.9624 255.162 56.8893 259.468 61.0068C263.796 65.0984 266.666 72.4105 264.199 78.2447C262.069 83.2599 256.979 85.3454 252.292 86.2425C232.245 90.0435 210.719 79.6432 198.722 60.3739Z" fill="#FFF6E9"/>
<path d="M40.1628 103.626C41.4301 99.6385 41.9151 95.0249 40.425 90.8763C38.9276 86.7425 35.0356 83.3806 31.3556 84.0811C29.1107 84.508 27.4088 86.262 26.0296 88.1729C24.7928 89.8875 24.6929 91.4452 24.129 93.5343C22.8885 98.1142 20.5102 102.226 17.3849 105.275C15.3717 107.229 13.0023 108.807 11.4611 111.278C9.90585 113.741 9.43135 117.552 11.3059 120.018C12.9221 122.136 15.5861 122.508 17.915 122.365C27.8723 121.74 36.8119 114.207 40.1628 103.626Z" fill="#FFF6E9"/>
<path d="M244.286 39.9449C243.048 38.6661 242.005 36.9759 241.832 35.0431C241.663 33.1146 242.587 30.9728 244.175 30.4562C245.144 30.1409 246.143 30.4581 247.042 30.9056C247.848 31.3071 248.175 31.8915 248.784 32.583C250.12 34.098 251.821 35.187 253.622 35.703C254.781 36.0309 256.011 36.1365 257.078 36.7673C258.149 37.3914 259.04 38.7719 258.751 40.1326C258.5 41.3028 257.512 42.0185 256.562 42.4625C252.499 44.3539 247.565 43.3412 244.286 39.9449Z" fill="#FFF6E9"/>
<path d="M266.973 135.107C267.648 138.199 265.612 141.743 265.457 145.849C265.414 146.997 265.387 148.151 265.36 149.312C265.221 155.273 265.077 161.442 262.622 166.337C260.334 170.897 256.219 173.981 252.238 176.965L251.15 177.779C246.317 181.431 241.591 185.701 239.78 192.141C238.13 198.02 239.287 205.223 242.958 211.916C243.933 213.695 245.031 215.36 246.242 216.911H63.0497C51.0258 215.335 39.1841 211.96 29.2606 203.823C15.8704 192.873 7.35073 170.847 14.0968 153.021C19.2943 139.201 31.5915 131.846 43.1224 125.942C54.6319 120.038 65.5515 105.393 56.5819 94.0051C24.0982 52.7615 92.0102 10.8788 123.742 17.0528C137.923 19.8119 251.505 120.858 264.225 132.281C265.2 133.158 266.691 133.814 266.973 135.107Z" fill="#FFF6E9"/>
<path d="M270.837 191.34C265.682 201.634 258.095 209.525 249.372 215.353C247.963 213.682 246.698 211.84 245.61 209.859C242.471 204.138 241.436 198.114 242.781 193.333C244.282 188.003 248.504 184.237 252.839 180.963L253.916 180.156C258.218 176.933 262.666 173.602 265.345 168.26C268.217 162.526 268.372 155.859 268.528 149.412C268.554 148.277 268.581 147.142 268.619 146.013C268.721 143.206 268.999 140.689 269.455 138.469C278.832 152.712 278.848 175.28 270.837 191.34Z" fill="#FFF6E9"/>
<path d="M64.0967 216.8L159.704 216.8L161.25 25.8945L65.6427 25.8945L64.0967 216.8Z" fill="#F9DBB4"/>
<g opacity="0.3">
<g opacity="0.3">
<path opacity="0.3" d="M64.0967 216.8L159.704 216.8L161.25 25.8945L65.6427 25.8945L64.0967 216.8Z" fill="white"/>
</g>
</g>
<path d="M65.1625 85.3112C65.162 85.3112 65.162 85.3112 65.1615 85.3112C65.0901 85.3107 65.0323 85.2522 65.0328 85.1806L65.513 25.8943C65.5135 25.8231 65.5712 25.7656 65.6426 25.7656H161.25C161.321 25.7656 161.38 25.8236 161.38 25.8953C161.38 25.9669 161.321 26.0249 161.25 26.0249H65.7713L65.2921 85.1826C65.2916 85.2538 65.2334 85.3112 65.1625 85.3112Z" fill="black"/>
<path d="M159.704 216.93H64.0967C64.0623 216.93 64.0288 216.916 64.0045 216.892C63.9802 216.867 63.9665 216.834 63.9671 216.799L64.9268 98.2698C64.9273 98.1984 64.9855 98.1412 65.0564 98.1412C65.0569 98.1412 65.0569 98.1412 65.0575 98.1412C65.1289 98.1417 65.1866 98.2002 65.1861 98.2718L64.2274 216.67H159.575L160.848 59.5183C160.849 59.4471 160.907 59.3896 160.978 59.3896C160.978 59.3896 160.978 59.3896 160.979 59.3896C161.05 59.3902 161.108 59.4487 161.107 59.5203L159.834 216.801C159.833 216.872 159.775 216.93 159.704 216.93Z" fill="black"/>
<path d="M175.422 193.822L176.874 195.806L180.096 200.208L185.852 208.075L197.634 199.689L196.852 195.112L195.895 189.522L189.132 182.44L175.422 193.822Z" fill="#FFBFAC"/>
<path d="M185.851 208.075L197.634 199.689L196.852 195.112C192.795 198.13 187.932 200.062 182.904 200.61C181.96 200.714 180.92 200.745 180.154 200.179L180.096 200.208L185.851 208.075Z" fill="#19040F"/>
<path d="M186.003 208.111C185.967 208.111 185.93 208.096 185.905 208.066C183.54 205.304 181.314 202.187 179.162 199.173L178.498 198.244C178.456 198.186 178.469 198.105 178.527 198.063C178.585 198.021 178.666 198.035 178.708 198.093L179.372 199.022C181.497 201.997 183.693 205.072 186.02 207.801C187.381 206.708 188.88 205.697 190.331 204.719C192.781 203.067 195.314 201.359 197.355 199.156C197.073 197.788 196.921 196.398 196.774 195.053C196.558 193.071 196.354 191.198 195.768 189.368C195.375 188.701 193.956 187.438 192.705 186.324C191.749 185.473 190.847 184.669 190.463 184.185C190.419 184.128 190.428 184.047 190.484 184.002C190.54 183.958 190.621 183.968 190.666 184.023C191.036 184.491 191.93 185.287 192.877 186.13C194.205 187.312 195.578 188.534 196.003 189.263C196.608 191.144 196.824 193.117 197.032 195.025C197.181 196.385 197.334 197.792 197.623 199.169C197.632 199.21 197.619 199.252 197.591 199.283C195.522 201.532 192.956 203.261 190.476 204.934C188.995 205.933 187.463 206.965 186.085 208.082C186.061 208.102 186.032 208.111 186.003 208.111Z" fill="#19040F"/>
<path d="M186.359 213.4C187.082 215.076 187.635 216.471 187.635 216.471L222.985 196.019C222.985 196.019 222.457 194.631 221.053 193.325L221.051 193.326C220.066 192.413 218.65 191.536 216.68 191.206C215.822 191.062 214.86 191.02 213.785 191.125C207.516 191.733 204.407 194.267 201.616 192.424C201.257 192.189 200.905 191.88 200.551 191.486C197.442 188.022 194.986 186.527 192.559 188.548C190.227 190.493 191.647 193.315 192.622 194.737C193.306 195.738 193.42 197.029 192.92 198.133C192.256 199.598 190.673 201.559 187.016 203.591C186.012 204.148 184.803 204.176 183.763 203.685C182.654 203.161 181.2 202.718 180.501 203.528C179.284 204.94 182.357 206.433 183.658 208.069C184.369 208.962 185.488 211.381 186.358 213.398L186.359 213.4Z" fill="#0217EB"/>
<path d="M201.205 197.432C202.833 197.95 215.247 194.569 216.106 193.455C216.704 192.679 216.99 191.925 216.68 191.207C215.822 191.063 214.86 191.021 213.785 191.126C207.516 191.734 204.407 194.268 201.616 192.425C201.616 192.425 199.579 196.914 201.205 197.432Z" fill="white"/>
<path d="M204.18 201.435C197.309 201.435 193.046 195.907 192.996 195.84C192.953 195.783 192.964 195.702 193.022 195.659C193.078 195.617 193.16 195.626 193.203 195.684C193.263 195.763 199.262 203.535 208.479 200.452C208.547 200.43 208.62 200.466 208.643 200.534C208.666 200.602 208.629 200.676 208.561 200.698C207.006 201.218 205.542 201.435 204.18 201.435Z" fill="#19040F"/>
<path d="M195.11 208.464C195.097 208.464 195.084 208.462 195.071 208.458C195.003 208.436 194.965 208.363 194.986 208.295C196.364 203.976 191.86 199.893 191.814 199.852C191.76 199.805 191.756 199.722 191.803 199.669C191.852 199.616 191.934 199.612 191.986 199.659C192.033 199.7 196.662 203.894 195.234 208.374C195.216 208.429 195.165 208.464 195.11 208.464Z" fill="#19040F"/>
<path d="M187.634 216.6C187.62 216.6 187.605 216.598 187.591 216.593C187.556 216.58 187.527 216.553 187.513 216.518C187.508 216.504 186.954 215.106 186.239 213.451C185.407 211.522 184.27 209.046 183.556 208.149C183.153 207.641 182.566 207.141 181.999 206.656C181.051 205.845 180.154 205.079 180.094 204.294C180.071 203.992 180.175 203.706 180.402 203.442C181 202.751 182.182 202.795 183.818 203.567C184.824 204.042 185.995 204.008 186.953 203.477C190.712 201.388 192.208 199.389 192.801 198.079C193.28 197.023 193.171 195.77 192.515 194.81C191.473 193.291 190.082 190.443 192.475 188.448C195.251 186.135 198.043 188.498 200.647 191.399C200.993 191.784 201.332 192.083 201.686 192.315C203.331 193.4 205.139 192.909 207.643 192.228C209.27 191.786 211.293 191.236 213.771 190.995C214.794 190.895 215.78 190.923 216.701 191.078C218.407 191.363 219.895 192.083 221.124 193.216C221.13 193.22 221.135 193.225 221.14 193.229C222.551 194.541 223.083 195.914 223.105 195.972C223.128 196.032 223.104 196.099 223.049 196.13L187.699 216.582C187.679 216.594 187.657 216.6 187.634 216.6ZM181.622 203.21C181.211 203.21 180.849 203.322 180.599 203.612C180.415 203.824 180.335 204.041 180.353 204.274C180.405 204.952 181.261 205.684 182.168 206.459C182.744 206.951 183.34 207.461 183.759 207.988C184.491 208.907 185.641 211.409 186.477 213.346L186.478 213.348C187.062 214.704 187.541 215.888 187.699 216.283L222.82 195.963C222.671 195.625 222.118 194.498 220.979 193.433C220.973 193.43 220.968 193.425 220.963 193.42C219.769 192.314 218.32 191.612 216.658 191.333C215.759 191.182 214.798 191.155 213.797 191.254C211.34 191.492 209.412 192.016 207.711 192.478C205.141 193.177 203.285 193.682 201.544 192.532C201.171 192.287 200.815 191.974 200.454 191.572C196.967 187.687 194.776 186.868 192.641 188.647C190.406 190.511 191.737 193.217 192.729 194.663C193.436 195.698 193.554 197.048 193.037 198.186C192.151 200.143 190.146 201.999 187.078 203.704C186.049 204.275 184.787 204.312 183.707 203.802C183.056 203.494 182.277 203.21 181.622 203.21Z" fill="#19040F"/>
<path d="M201.66 197.609C201.446 197.609 201.279 197.592 201.165 197.556C200.901 197.471 200.707 197.292 200.587 197.023C200 195.701 201.436 192.507 201.497 192.371C201.513 192.337 201.543 192.311 201.58 192.3C201.615 192.29 201.655 192.296 201.687 192.317C203.328 193.401 205.138 192.91 207.643 192.229C209.27 191.787 211.293 191.237 213.771 190.996C214.794 190.896 215.78 190.924 216.701 191.079C216.744 191.086 216.781 191.115 216.799 191.155C217.099 191.85 216.906 192.628 216.209 193.534C215.355 194.64 204.482 197.609 201.66 197.609ZM201.244 197.308C202.738 197.788 215.154 194.477 216.003 193.376C216.624 192.569 216.811 191.915 216.587 191.323C215.709 191.183 214.772 191.159 213.797 191.255C211.34 191.493 209.412 192.017 207.711 192.479C205.204 193.162 203.378 193.657 201.674 192.616C201.405 193.242 200.349 195.846 200.824 196.917C200.914 197.119 201.051 197.247 201.244 197.308Z" fill="#19040F"/>
<path d="M187.635 216.471L222.985 196.019C222.985 196.019 222.457 194.631 221.053 193.325L186.358 213.398L186.359 213.4C187.082 215.076 187.635 216.471 187.635 216.471Z" fill="white"/>
<path d="M187.634 216.599C187.62 216.599 187.605 216.597 187.592 216.592C187.556 216.58 187.527 216.553 187.514 216.517C187.508 216.503 186.954 215.105 186.24 213.45C186.214 213.389 186.236 213.317 186.293 213.284L220.988 193.212C221.037 193.183 221.099 193.19 221.141 193.229C222.551 194.54 223.084 195.914 223.105 195.972C223.128 196.031 223.104 196.098 223.049 196.13L187.699 216.582C187.679 216.594 187.657 216.599 187.634 216.599ZM186.522 213.451C187.089 214.767 187.545 215.898 187.699 216.282L222.821 195.963C222.673 195.63 222.136 194.533 221.034 193.484L186.522 213.451Z" fill="#19040F"/>
<path d="M203.823 197.234C203.764 197.234 203.71 197.193 203.696 197.133C203.236 195.106 204.246 193.088 204.289 193.004C204.322 192.94 204.4 192.914 204.464 192.947C204.527 192.979 204.553 193.057 204.52 193.121C204.51 193.141 203.51 195.141 203.95 197.076C203.965 197.146 203.922 197.215 203.852 197.231C203.842 197.233 203.833 197.234 203.823 197.234Z" fill="#19040F"/>
<path d="M207.061 196.667C207.011 196.667 206.963 196.638 206.942 196.589C206.062 194.531 207.125 192.485 207.17 192.399C207.204 192.336 207.283 192.312 207.346 192.345C207.409 192.379 207.433 192.457 207.399 192.52C207.389 192.54 206.35 194.545 207.18 196.487C207.208 196.553 207.178 196.629 207.112 196.657C207.095 196.664 207.078 196.667 207.061 196.667Z" fill="#19040F"/>
<path d="M211.815 195.355C211.754 195.355 211.7 195.312 211.688 195.251C211.19 192.767 212.223 191.287 212.267 191.225C212.309 191.167 212.388 191.153 212.448 191.195C212.506 191.237 212.519 191.318 212.478 191.376C212.468 191.39 211.468 192.832 211.942 195.199C211.956 195.27 211.911 195.338 211.84 195.352C211.832 195.354 211.823 195.355 211.815 195.355Z" fill="#19040F"/>
<path d="M127.125 178.894L126.56 181.286L125.309 186.596L123.07 196.083L137.101 199.588L140.071 196.019L143.698 191.658L144.685 181.916L127.125 178.894Z" fill="#FFBFAC"/>
<path d="M123.07 196.083L137.101 199.588L140.071 196.019C135.141 194.897 130.512 192.456 126.828 188.991C126.136 188.341 125.437 187.571 125.369 186.621L125.309 186.596L123.07 196.083Z" fill="#19040F"/>
<path d="M137.386 199.291C137.385 199.291 137.383 199.291 137.381 199.291C134.327 199.179 131.346 198.354 128.462 197.555C126.741 197.079 124.96 196.586 123.216 196.264C123.147 196.252 123.101 196.186 123.112 196.117C123.673 192.528 124.594 188.814 125.485 185.223L125.762 184.104C125.779 184.035 125.851 183.993 125.919 184.009C125.989 184.026 126.031 184.097 126.014 184.166L125.737 185.286C124.857 188.83 123.949 192.494 123.388 196.032C125.103 196.356 126.845 196.839 128.532 197.305C131.379 198.094 134.323 198.909 137.324 199.029C138.181 197.925 139.138 196.907 140.065 195.921C141.431 194.468 142.722 193.096 143.732 191.461C143.984 190.729 144.022 188.829 144.056 187.153C144.081 185.874 144.105 184.667 144.224 184.06C144.238 183.99 144.306 183.942 144.376 183.958C144.447 183.972 144.492 184.04 144.478 184.11C144.364 184.695 144.34 185.891 144.314 187.158C144.279 188.936 144.242 190.775 143.965 191.572C142.929 193.255 141.569 194.7 140.254 196.099C139.317 197.095 138.348 198.126 137.489 199.24C137.464 199.272 137.426 199.291 137.386 199.291Z" fill="#19040F"/>
<path d="M119.354 199.928C118.55 201.567 117.849 202.893 117.849 202.893L156.367 216.468C156.367 216.468 157.079 215.165 157.159 213.249L157.157 213.249C157.211 211.906 156.957 210.261 155.927 208.549C155.479 207.803 154.887 207.045 154.108 206.296C149.571 201.926 145.625 201.21 145.211 197.892C145.157 197.465 145.163 196.997 145.232 196.473C145.844 191.858 145.385 189.019 142.271 188.488C139.278 187.98 138.056 190.893 137.608 192.559C137.292 193.73 136.385 194.656 135.221 194.992C133.676 195.44 131.157 195.511 127.236 194.052C126.161 193.652 125.353 192.75 125.05 191.641C124.728 190.458 124.12 189.066 123.05 189.06C121.185 189.053 122.048 192.359 121.651 194.411C121.434 195.532 120.322 197.954 119.355 199.926L119.354 199.928Z" fill="#0217EB"/>
<path d="M141.139 200.833C141.803 202.406 152.441 209.644 153.846 209.573C154.825 209.523 155.583 209.25 155.927 208.548C155.479 207.802 154.887 207.044 154.107 206.295C149.571 201.925 145.625 201.209 145.211 197.891C145.211 197.891 140.477 199.26 141.139 200.833Z" fill="white"/>
<path d="M143.504 208.567C143.481 208.567 143.458 208.561 143.437 208.548C134.941 203.449 136.991 193.66 137.013 193.562C137.028 193.492 137.098 193.447 137.167 193.463C137.237 193.479 137.281 193.548 137.266 193.618C137.245 193.714 135.237 203.324 143.57 208.326C143.632 208.363 143.652 208.443 143.615 208.504C143.59 208.544 143.548 208.567 143.504 208.567Z" fill="#19040F"/>
<path d="M128.892 203.416C128.842 203.416 128.794 203.386 128.773 203.337C128.745 203.271 128.776 203.195 128.842 203.167C133.022 201.406 133.196 195.33 133.197 195.268C133.198 195.197 133.267 195.142 133.329 195.142C133.401 195.143 133.457 195.202 133.456 195.274C133.454 195.337 133.276 201.58 128.942 203.406C128.926 203.413 128.909 203.416 128.892 203.416Z" fill="#19040F"/>
<path d="M156.367 216.598C156.352 216.598 156.338 216.595 156.324 216.59L117.806 203.016C117.771 203.003 117.742 202.976 117.729 202.941C117.714 202.905 117.717 202.866 117.735 202.833C117.741 202.819 118.444 201.489 119.238 199.871L119.24 199.872C120.169 197.97 121.306 195.509 121.523 194.386C121.647 193.749 121.646 192.978 121.645 192.232C121.645 190.984 121.645 189.805 122.203 189.249C122.415 189.037 122.698 188.93 123.044 188.93C123.046 188.93 123.048 188.93 123.05 188.93C123.964 188.935 124.699 189.861 125.175 191.607C125.468 192.68 126.255 193.549 127.281 193.93C131.312 195.431 133.803 195.268 135.185 194.867C136.299 194.545 137.18 193.648 137.483 192.526C137.96 190.746 139.215 187.84 142.293 188.36C145.856 188.968 145.873 192.626 145.36 196.489C145.292 197.001 145.286 197.454 145.34 197.875C145.584 199.829 147.133 200.885 149.277 202.345C150.671 203.294 152.404 204.475 154.197 206.202C154.938 206.915 155.558 207.682 156.038 208.481C156.93 209.963 157.35 211.561 157.287 213.232C157.288 213.239 157.288 213.247 157.288 213.255C157.208 215.179 156.51 216.476 156.481 216.53C156.457 216.573 156.413 216.598 156.367 216.598ZM118.033 202.821L156.302 216.308C156.462 215.975 156.959 214.822 157.028 213.265C157.027 213.258 157.027 213.251 157.027 213.243C157.092 211.616 156.685 210.059 155.816 208.615C155.347 207.835 154.742 207.086 154.018 206.389C152.24 204.677 150.588 203.552 149.131 202.559C146.931 201.061 145.341 199.978 145.083 197.907C145.026 197.464 145.033 196.989 145.103 196.455C145.79 191.281 144.99 189.083 142.249 188.616C139.384 188.13 138.188 190.899 137.733 192.593C137.406 193.803 136.457 194.769 135.257 195.117C133.193 195.714 130.48 195.398 127.191 194.174C126.087 193.763 125.24 192.828 124.925 191.675C124.616 190.544 124.041 189.195 123.049 189.189C123.047 189.189 123.045 189.189 123.043 189.189C122.766 189.189 122.551 189.269 122.386 189.433C121.904 189.913 121.905 191.04 121.905 192.232C121.905 192.99 121.906 193.774 121.777 194.436C121.554 195.59 120.4 198.09 119.471 199.983C119.471 199.984 119.471 199.984 119.471 199.985C119.471 199.985 119.471 199.985 119.471 199.985C118.82 201.311 118.231 202.444 118.033 202.821ZM119.354 199.928H119.357H119.354Z" fill="#19040F"/>
<path d="M153.829 209.704C152.244 209.704 141.674 202.435 141.02 200.884C140.913 200.629 140.922 200.364 141.049 200.098C141.672 198.793 145.033 197.808 145.176 197.767C145.211 197.757 145.252 197.762 145.283 197.783C145.315 197.804 145.336 197.838 145.341 197.875C145.584 199.829 147.133 200.885 149.278 202.345C150.671 203.294 152.404 204.475 154.198 206.202C154.939 206.915 155.558 207.682 156.038 208.481C156.061 208.519 156.063 208.566 156.044 208.605C155.711 209.285 154.994 209.645 153.853 209.703C153.845 209.704 153.837 209.704 153.829 209.704ZM141.259 200.783C141.869 202.229 152.459 209.52 153.839 209.444C154.856 209.392 155.475 209.108 155.779 208.553C155.316 207.795 154.724 207.067 154.018 206.389C152.24 204.677 150.589 203.552 149.132 202.559C146.986 201.098 145.42 200.032 145.105 198.059C144.454 198.263 141.788 199.152 141.283 200.21C141.188 200.409 141.181 200.596 141.259 200.783Z" fill="#19040F"/>
<path d="M117.849 202.894L156.367 216.469C156.367 216.469 157.079 215.166 157.159 213.25L119.355 199.927L119.354 199.929C118.55 201.568 117.849 202.894 117.849 202.894Z" fill="white"/>
<path d="M156.367 216.598C156.352 216.598 156.338 216.596 156.324 216.59L117.806 203.016C117.771 203.003 117.742 202.976 117.729 202.941C117.714 202.905 117.717 202.866 117.735 202.833C117.741 202.819 118.444 201.489 119.238 199.871C119.247 199.836 119.266 199.817 119.298 199.8C119.33 199.782 119.363 199.791 119.398 199.804L157.202 213.127C157.255 213.146 157.29 213.198 157.288 213.255C157.208 215.179 156.51 216.476 156.481 216.53C156.457 216.573 156.413 216.598 156.367 216.598ZM118.033 202.821L156.302 216.308C156.459 215.98 156.943 214.859 157.025 213.34L119.418 200.086C118.785 201.378 118.225 202.456 118.033 202.821Z" fill="#19040F"/>
<path d="M143.088 202.741C143.061 202.741 143.034 202.732 143.011 202.715C142.953 202.672 142.941 202.591 142.984 202.533C144.226 200.866 146.416 200.322 146.508 200.3C146.577 200.285 146.648 200.326 146.665 200.396C146.682 200.465 146.638 200.535 146.569 200.552C146.547 200.557 144.377 201.097 143.192 202.688C143.167 202.723 143.128 202.741 143.088 202.741Z" fill="#19040F"/>
<path d="M145.624 204.833C145.605 204.833 145.585 204.829 145.566 204.819C145.502 204.788 145.476 204.71 145.508 204.646C146.5 202.639 148.745 202.117 148.84 202.096C148.913 202.08 148.98 202.125 148.995 202.194C149.011 202.264 148.967 202.334 148.897 202.349C148.875 202.354 146.677 202.868 145.74 204.761C145.717 204.806 145.671 204.833 145.624 204.833Z" fill="#19040F"/>
<path d="M149.711 207.592C149.683 207.592 149.655 207.583 149.631 207.565C149.575 207.521 149.565 207.439 149.609 207.383C151.174 205.391 152.97 205.214 153.046 205.207C153.114 205.206 153.18 205.254 153.186 205.325C153.192 205.396 153.139 205.459 153.068 205.465C153.051 205.467 151.305 205.644 149.813 207.543C149.788 207.576 149.75 207.592 149.711 207.592Z" fill="#19040F"/>
<path d="M145.177 168.529H100.54V172.882H145.177V168.529Z" fill="#C4C4FD"/>
<path d="M145.177 173.011H100.54C100.469 173.011 100.41 172.953 100.41 172.881V168.528C100.41 168.456 100.469 168.398 100.54 168.398H145.177C145.248 168.398 145.306 168.456 145.306 168.528V172.881C145.306 172.953 145.248 173.011 145.177 173.011ZM100.67 172.751H145.047V168.658H100.67V172.751V172.751Z" fill="black"/>
<path d="M105.984 161.363H97.1066L77.6862 216.47H81.6812L105.984 161.363Z" fill="#C4C4FD"/>
<g opacity="0.1">
<g opacity="0.1">
<path opacity="0.1" d="M105.983 161.365L105.08 163.411H99.3722L80.6767 216.47H77.6866L97.1079 161.365H105.983Z" fill="#19040F"/>
</g>
</g>
<path d="M137.599 161.363H146.477L165.898 216.47H161.903L137.599 161.363Z" fill="#C4C4FD"/>
<path d="M81.6818 216.599H77.6864C77.6443 216.599 77.6048 216.579 77.5805 216.545C77.5562 216.51 77.5501 216.466 77.5643 216.427L96.9849 161.32C97.0031 161.268 97.0517 161.233 97.1069 161.233H105.985C106.029 161.233 106.07 161.255 106.093 161.292C106.118 161.329 106.121 161.375 106.104 161.415L102.943 168.581C102.914 168.647 102.836 168.677 102.773 168.647C102.707 168.618 102.677 168.542 102.706 168.476L105.786 161.493H97.1986L77.8697 216.34H81.5972L101.962 170.164C101.991 170.099 102.069 170.069 102.132 170.098C102.198 170.127 102.228 170.204 102.199 170.269L81.8003 216.522C81.7795 216.569 81.7329 216.599 81.6818 216.599Z" fill="black"/>
<path d="M165.898 216.599H161.903C161.852 216.599 161.805 216.569 161.785 216.522L137.481 161.415C137.463 161.375 137.467 161.329 137.491 161.292C137.515 161.255 137.556 161.233 137.6 161.233H146.477C146.533 161.233 146.581 161.268 146.599 161.32L166.02 216.427C166.034 216.466 166.028 216.51 166.004 216.545C165.98 216.579 165.94 216.599 165.898 216.599ZM161.988 216.34H165.715L146.386 161.493H137.799L161.988 216.34Z" fill="black"/>
<path d="M150.249 163.41H102.919C98.0359 163.41 93.7343 160.205 92.3361 155.529L78.1774 108.124C75.9627 100.708 81.514 93.2559 89.2511 93.2559H128.399L128.217 100.993L127.36 137.51L142.71 154.881L150.249 163.41Z" fill="#8AA7BB"/>
<path d="M150.25 163.41H102.919C98.036 163.41 93.7344 160.205 92.3362 155.528L78.1775 108.124C76.7711 103.41 78.4992 98.6792 81.9389 95.8623C81.4275 97.8172 81.4234 99.9454 82.0585 102.069L96.2172 149.474C97.6153 154.151 101.917 157.356 106.8 157.356H144.896L150.25 163.41Z" fill="#5D7A95"/>
<g opacity="0.1">
<g opacity="0.1">
<path opacity="0.1" d="M142.711 154.881C140.809 155.132 138.813 155.017 136.891 154.864C128.94 154.241 109.843 157.487 102.838 150.493C97.3687 145.032 96.565 131.275 96.7918 127.365C97.4847 115.429 100.54 104.823 105.985 94.0068L108.714 101.409C111.543 101.261 114.373 101.112 117.206 100.964C120.856 100.77 124.597 100.593 128.218 100.993L127.36 137.509L142.711 154.881Z" fill="#19040F"/>
</g>
</g>
<path d="M150.252 163.54H102.918C98.0173 163.54 93.6151 160.26 92.2133 155.565L78.0533 108.16C76.9862 104.587 77.6511 100.824 79.8785 97.8339C82.1059 94.8438 85.522 93.1289 89.2505 93.1289H128.401C128.436 93.1289 128.469 93.1431 128.494 93.1679C128.518 93.193 128.532 93.2267 128.531 93.2616L127.491 137.462L150.349 163.324C150.382 163.363 150.391 163.417 150.37 163.463C150.349 163.51 150.303 163.54 150.252 163.54ZM89.2505 93.3882C85.6045 93.3882 82.2644 95.0651 80.0867 97.9889C77.9089 100.912 77.2581 104.593 78.3014 108.086L92.4614 155.491C93.8314 160.077 98.1312 163.28 102.918 163.28H149.964L127.263 137.596C127.241 137.571 127.23 137.54 127.23 137.507L128.268 93.3882H89.2505Z" fill="black"/>
<path d="M194.413 183.528L176.889 202.409L165.246 191.571L142.789 170.661L138.294 166.475L117.85 120.315L140.17 124.11L143.952 128.251L146.266 130.787L159.365 145.14L163.675 149.858L194.413 183.528Z" fill="#0217EB"/>
<path d="M146.266 130.788C145.643 131.061 144.995 131.275 144.332 131.428C141.428 132.096 138.273 131.564 135.745 129.984C134.413 129.151 131.938 125.773 135.192 125.913C137.106 125.996 138.945 126.648 140.756 127.279C141.803 127.646 142.867 128.009 143.952 128.252L146.266 130.788Z" fill="#19040F"/>
<path d="M165.246 191.571L142.789 170.661C142.962 168.838 143.251 167.027 143.667 165.245C145.655 156.725 150.477 148.864 157.282 143.37L156.58 145.511C157.43 145.032 158.416 144.937 159.364 145.139L163.674 149.858C163.901 150.959 163.913 152.122 163.769 153.24C163.497 155.409 162.717 157.471 162.099 159.566C159.645 167.885 159.797 176.958 162.528 185.19C163.258 187.389 164.169 189.525 165.246 191.571Z" fill="#0316D5"/>
<path d="M176.887 202.542C176.854 202.542 176.823 202.529 176.799 202.507L138.207 166.569C138.194 166.557 138.184 166.542 138.177 166.526L117.731 120.368C117.711 120.324 117.717 120.273 117.747 120.236C117.776 120.198 117.824 120.18 117.871 120.187L140.191 123.983C140.219 123.988 140.246 124.002 140.265 124.024L194.511 183.442C194.556 183.492 194.556 183.568 194.51 183.618L176.982 202.5C176.959 202.526 176.926 202.541 176.892 202.542C176.89 202.542 176.889 202.542 176.887 202.542ZM138.403 166.397L176.881 202.229L194.239 183.529L140.103 124.231L118.065 120.484L138.403 166.397Z" fill="black"/>
<path d="M147.247 187.632L128.597 182.959L120.653 180.971L129.776 149.94C129.776 149.94 106.705 151.153 102.634 145.102C97.6975 137.761 103.034 122.398 103.034 122.398L108.293 121.66L135.039 117.895L133.839 127.199C133.839 127.199 155.471 129.492 159.715 135.019C166.763 144.191 147.247 187.632 147.247 187.632Z" fill="#0217EB"/>
<path d="M128.597 182.96L120.653 180.972L129.776 149.94C129.776 149.94 106.705 151.153 102.634 145.103C97.6975 137.761 103.034 122.398 103.034 122.398L108.293 121.66C109.035 124.168 107.699 127.579 107.06 129.74C106.144 132.841 105.476 136.433 107.287 139.114C108.817 141.378 111.733 142.31 114.463 142.393C117.193 142.475 119.899 141.869 122.629 141.783C125.359 141.692 129.983 142.403 131.904 144.346C134.094 146.56 134.335 149.228 133.795 152.765C132.263 162.8 131.471 173.226 128.597 182.96Z" fill="#0316D5"/>
<path d="M147.246 187.765C147.236 187.765 147.226 187.764 147.215 187.761L120.621 181.097C120.587 181.089 120.558 181.067 120.54 181.036C120.523 181.005 120.519 180.969 120.528 180.935L129.599 150.079C127.261 150.189 106.445 150.999 102.528 145.175C97.6122 137.867 102.86 122.51 102.913 122.356C102.929 122.31 102.969 122.277 103.018 122.27L135.023 117.77C135.063 117.765 135.104 117.777 135.132 117.806C135.161 117.834 135.175 117.874 135.169 117.915L135.126 118.248C135.117 118.319 135.05 118.37 134.981 118.36C134.91 118.351 134.86 118.286 134.869 118.215L134.89 118.05L103.133 122.516C102.742 123.687 98.0751 138.09 102.743 145.03C106.725 150.951 129.538 149.823 129.769 149.811C129.811 149.808 129.851 149.827 129.877 149.86C129.903 149.893 129.911 149.937 129.9 149.977L120.815 180.879L147.172 187.483C148.207 185.155 166.373 143.895 159.615 135.098C155.45 129.678 134.043 127.351 133.827 127.329C133.755 127.321 133.704 127.257 133.711 127.186C133.719 127.115 133.783 127.064 133.854 127.071C134.739 127.164 155.588 129.432 159.82 134.94C166.834 144.07 148.163 185.912 147.365 187.689C147.343 187.736 147.297 187.765 147.246 187.765Z" fill="black"/>
<path d="M190.859 81.426C190.859 81.4309 190.854 81.4309 190.854 81.4309C189.746 84.6246 187.119 88.1534 181.195 90.2529C181.14 90.2726 181.081 90.2923 181.027 90.312C181.027 90.312 175.468 99.001 169.765 105.65C164.029 112.342 156.961 118.996 151.717 118.749C146.404 118.498 138.913 107.517 134.709 100.608C132.767 97.4189 131.53 95.0927 131.53 95.0927L137.41 93.5501L149.766 90.312L153.309 94.7674L154.645 96.4431L172.525 82.4117L172.516 82.3969L183.871 69.0801L189.47 69.3216C189.47 69.3216 189.509 69.3364 189.583 69.3709C190.017 69.5927 191.544 70.534 191.544 72.9835C191.544 73.4122 191.495 73.8903 191.387 74.4176C191.387 74.4176 192.156 77.6902 190.859 81.426Z" fill="#FFD8C8"/>
<path d="M169.764 105.646C164.027 112.34 156.964 118.993 151.717 118.745C146.404 118.498 138.911 107.518 134.71 100.604C135.149 98.4475 135.919 96.3421 136.941 94.4001C137.091 94.1153 137.249 93.8305 137.413 93.5504L149.765 90.3105L153.308 94.7641C151.721 95.6325 150.269 96.9069 148.818 97.9573C147.786 98.6996 146.754 99.4418 145.722 100.184C144.947 100.744 144.112 101.384 143.897 102.313C143.538 103.858 148.832 116.08 150.111 116.747C151.231 117.331 152.561 116.588 153.603 115.874C158.831 112.28 169.643 105.441 169.764 105.646Z" fill="#FE8D7C"/>
<path d="M190.298 82.0566C190.495 81.8643 190.692 81.6574 190.855 81.4307C189.746 84.6243 187.119 88.1531 181.195 90.2527C180.993 89.9225 180.805 89.5824 180.618 89.2472C180.451 88.9466 180.283 88.641 180.209 88.3059C180.135 87.9708 180.17 87.5962 180.372 87.3202C180.643 86.9506 181.136 86.8471 181.584 86.7485C184.852 86.0388 187.907 84.3927 190.298 82.0566Z" fill="#FE8D7C"/>
<path d="M152.008 118.886C151.908 118.886 151.81 118.884 151.712 118.879C146.303 118.623 138.668 107.364 134.598 100.675C132.677 97.5194 131.428 95.1766 131.416 95.1533C131.397 95.1183 131.396 95.0768 131.411 95.0406C131.428 95.0041 131.459 94.977 131.497 94.9672L149.733 90.1864C149.782 90.1725 149.835 90.1908 149.867 90.231L154.666 96.2614L172.398 82.3465C172.402 82.3338 172.409 82.3224 172.417 82.3126L183.772 68.9958C183.799 68.9652 183.838 68.9495 183.877 68.9502L189.476 69.1918C189.489 69.1926 189.503 69.1953 189.516 69.2002C189.516 69.2002 189.558 69.2159 189.638 69.2533C190.119 69.4987 191.674 70.4868 191.674 72.9834C191.674 73.4275 191.622 73.9097 191.52 74.4167C191.653 75.0578 193.694 85.934 181.113 90.4187C180.708 91.0489 175.318 99.3754 169.864 105.734C162.381 114.463 156.376 118.886 152.008 118.886ZM131.722 95.1761C132.023 95.7321 133.174 97.837 134.82 100.54C138.863 107.185 146.435 118.369 151.724 118.62C155.982 118.81 162.175 114.305 169.668 105.565C175.298 98.9996 180.864 90.3283 180.919 90.2414C180.935 90.2171 180.958 90.1986 180.985 90.189C193.71 85.6795 191.287 74.5587 191.261 74.4468C191.256 74.4286 191.256 74.4096 191.26 74.3913C191.363 73.8915 191.415 73.4177 191.415 72.9834C191.415 70.6342 189.967 69.7127 189.524 69.4863C189.487 69.4688 189.459 69.4569 189.442 69.4501L183.929 69.2121L172.646 82.444C172.64 82.4716 172.627 82.4967 172.605 82.5136L154.725 96.545C154.668 96.5888 154.587 96.5792 154.544 96.5237L149.717 90.4587L131.722 95.1761Z" fill="black"/>
<path d="M157.381 97.6202C157.377 97.4109 157.471 97.2031 157.652 97.0697L162.205 93.724C162.501 93.5064 162.917 93.57 163.135 93.8663C163.353 94.1624 163.289 94.579 162.993 94.7968L158.441 98.1425C158.144 98.3601 157.728 98.2965 157.51 98.0002C157.426 97.8854 157.384 97.7525 157.381 97.6202Z" fill="white"/>
<path d="M163.89 92.8358C163.886 92.6266 163.98 92.4187 164.162 92.2853L165.685 91.1654C165.981 90.9478 166.398 91.0114 166.616 91.3075C166.834 91.6042 166.77 92.0204 166.474 92.2382L164.95 93.3581C164.654 93.5758 164.237 93.5122 164.02 93.216C163.935 93.1012 163.893 92.9681 163.89 92.8358Z" fill="white"/>
<path d="M140.557 76.5381C144.178 78.0425 149.954 84.8065 153.194 91.7177C152.169 94.195 142.05 102.817 141.065 101.608L140.557 76.5381Z" fill="#00FFC6"/>
<path d="M141.368 101.854C141.188 101.854 141.053 101.8 140.964 101.691C140.946 101.669 140.936 101.641 140.935 101.612L140.427 76.5414C140.426 76.4976 140.447 76.4564 140.484 76.4318C140.52 76.4072 140.566 76.4022 140.606 76.4191C144.348 77.9737 150.166 84.9547 153.311 91.6635C153.327 91.6964 153.328 91.7344 153.314 91.7681C152.317 94.1757 143.724 101.519 141.525 101.842C141.469 101.85 141.417 101.854 141.368 101.854ZM141.193 101.553C141.265 101.604 141.388 101.6 141.487 101.585C143.556 101.282 152 94.0664 153.052 91.7207C149.976 85.1869 144.377 78.4151 140.69 76.7384L141.193 101.553Z" fill="black"/>
<path d="M141.368 101.854C141.188 101.854 141.053 101.8 140.964 101.691C140.946 101.669 140.936 101.641 140.935 101.612L140.427 76.5414C140.426 76.4976 140.447 76.4564 140.484 76.4318C140.52 76.4072 140.566 76.4022 140.606 76.4191C144.348 77.9737 150.166 84.9547 153.311 91.6635C153.327 91.6964 153.328 91.7344 153.314 91.7681C152.317 94.1757 143.724 101.519 141.525 101.842C141.469 101.85 141.417 101.854 141.368 101.854ZM141.193 101.553C141.265 101.604 141.388 101.6 141.487 101.585C143.556 101.282 152 94.0664 153.052 91.7207C149.976 85.1869 144.377 78.4151 140.69 76.7384L141.193 101.553Z" fill="black"/>
<path d="M141.229 77.1633C135.525 71.2106 112.209 70.6795 105.997 76.0996C96.6689 84.2383 101.8 123.881 101.8 123.881C101.791 125.45 142.078 126.117 142.087 124.548C142.089 124.201 149.722 86.0273 141.229 77.1633Z" fill="#00FFC6"/>
<path d="M128.046 125.573C127.381 125.573 126.7 125.571 126.004 125.567C120.185 125.533 114.237 125.363 109.683 125.099C101.666 124.634 101.669 124.106 101.671 123.881C101.462 122.277 96.6383 84.0935 105.912 76.0021C112.006 70.6853 134.51 71.0599 140.808 76.5833C140.862 76.6304 140.868 76.7124 140.82 76.7664C140.773 76.8203 140.691 76.8251 140.637 76.7783C134.399 71.3075 112.116 70.9332 106.082 76.1976C96.9133 84.1978 101.878 123.469 101.929 123.865C102.197 124.383 109.226 125.045 121.725 125.259C134.48 125.477 141.669 125.048 141.961 124.534C141.958 124.516 141.973 124.403 142.053 123.844C144.121 109.373 145.002 96.8187 144.534 88.4926C144.53 88.4209 144.585 88.3599 144.657 88.3559C144.722 88.3445 144.79 88.4065 144.794 88.4779C145.262 96.8208 144.379 109.394 142.31 123.88C142.257 124.251 142.219 124.518 142.217 124.553C142.216 124.761 142.213 125.154 137.256 125.396C134.849 125.513 131.694 125.573 128.046 125.573Z" fill="black"/>
<path d="M126.393 122.499C126.393 122.499 105.984 125.067 94.461 120.764C93.224 120.306 92.1249 119.764 91.2033 119.123C90.3063 118.507 89.5818 117.797 89.0643 116.989C84.0767 109.276 93.495 93.9681 94.9538 91.6863C94.9933 91.6222 95.0278 91.5729 95.0574 91.5285C95.1116 91.4447 95.1412 91.4004 95.1412 91.4004L109.695 101.016L108.142 104.604L106.334 108.768L124.214 114.421L126.393 122.499Z" fill="#FFD8C8"/>
<path d="M109.695 101.016L108.142 104.604C108.128 104.594 108.113 104.589 108.098 104.579C106.634 103.751 105.023 103.155 103.48 102.49C101.632 101.686 99.7788 100.893 97.9257 100.109C96.6049 99.5472 95.1313 98.9804 93.771 99.4486C92.2087 99.9809 91.3905 101.671 90.8928 103.248C89.2713 108.389 89.4339 114.042 91.2033 119.123C90.3063 118.507 89.5818 117.797 89.0643 116.989C84.0767 109.276 93.495 93.9681 94.9538 91.6863C94.9933 91.6222 95.0278 91.5729 95.0574 91.5285C95.1116 91.4447 95.1412 91.4004 95.1412 91.4004L109.695 101.016Z" fill="#FF8E7B"/>
<path d="M154.533 130.499L162.738 101.801C163.041 100.74 162.307 99.6631 161.208 99.5584L141.13 97.6457C140.283 97.565 139.499 98.0999 139.265 98.918L131.06 127.616C130.757 128.678 131.491 129.754 132.591 129.859L152.668 131.772C153.515 131.852 154.3 131.317 154.533 130.499Z" fill="white"/>
<path d="M144.109 110.093L146.035 103.355C146.131 103.018 145.898 102.668 145.535 102.605L142.816 102.136C142.507 102.083 142.211 102.26 142.129 102.547L140.203 109.284C140.107 109.621 140.34 109.972 140.703 110.034L143.422 110.503C143.731 110.556 144.027 110.38 144.109 110.093Z" fill="#F2F6FC"/>
<path d="M140.702 110.035L143.421 110.503C143.73 110.557 144.026 110.379 144.108 110.092L146.034 103.355C146.115 103.074 145.963 102.782 145.7 102.658C145.699 102.669 145.696 102.682 145.693 102.693L143.766 109.431C143.684 109.718 143.388 109.894 143.079 109.841L140.36 109.372C140.3 109.362 140.244 109.344 140.195 109.319C140.122 109.645 140.352 109.973 140.702 110.035Z" fill="#D9DFE8"/>
<path d="M143.533 110.577C143.493 110.577 143.452 110.573 143.411 110.566L140.692 110.097C140.495 110.063 140.322 109.948 140.217 109.782C140.118 109.624 140.091 109.441 140.141 109.266L142.067 102.528C142.159 102.209 142.483 102.013 142.827 102.072L145.546 102.541C145.743 102.574 145.917 102.689 146.021 102.856C146.12 103.014 146.147 103.197 146.097 103.372L144.171 110.11C144.091 110.391 143.828 110.577 143.533 110.577ZM142.706 102.191C142.468 102.191 142.256 102.339 142.192 102.564L140.265 109.302C140.226 109.441 140.248 109.587 140.327 109.713C140.412 109.848 140.553 109.942 140.714 109.97L143.433 110.438C143.707 110.485 143.973 110.33 144.047 110.074L145.973 103.336C146.012 103.197 145.99 103.051 145.911 102.925C145.826 102.789 145.685 102.696 145.523 102.668L142.805 102.199C142.771 102.194 142.738 102.191 142.706 102.191Z" fill="black"/>
<path d="M132.518 129.849C132.516 129.68 132.537 129.507 132.586 129.335L140.79 100.638C141.024 99.8185 141.808 99.284 142.657 99.3645L162.733 101.278C162.757 101.28 162.782 101.283 162.805 101.288C162.795 100.417 162.129 99.6467 161.207 99.5576L141.131 97.6446C140.284 97.5647 139.498 98.0986 139.264 98.9178L131.06 127.615C130.763 128.654 131.46 129.706 132.518 129.849Z" fill="#D9DFE8"/>
<path d="M132.618 129.286C132.612 129.286 132.607 129.285 132.601 129.283C132.566 129.273 132.546 129.237 132.556 129.203L138.376 108.846C138.385 108.811 138.422 108.792 138.456 108.801C138.49 108.811 138.51 108.847 138.5 108.881L132.681 129.238C132.673 129.267 132.647 129.286 132.618 129.286Z" fill="black"/>
<path d="M152.837 131.845C152.779 131.845 152.721 131.842 152.663 131.837L132.585 129.924C132.041 129.872 131.553 129.584 131.246 129.133C130.938 128.682 130.848 128.123 130.998 127.599L139.202 98.9008C139.446 98.0528 140.264 97.4982 141.136 97.5815L161.214 99.4941C161.757 99.546 162.245 99.8342 162.553 100.285C162.86 100.736 162.95 101.295 162.8 101.82L154.596 130.517C154.369 131.309 153.646 131.845 152.837 131.845ZM140.961 97.7028C140.209 97.7028 139.537 98.2009 139.327 98.9363L131.122 127.634C130.983 128.122 131.067 128.641 131.353 129.06C131.639 129.479 132.092 129.747 132.597 129.795L152.675 131.708C153.49 131.787 154.246 131.27 154.471 130.482L162.675 101.784C162.814 101.297 162.731 100.777 162.445 100.358C162.16 99.9393 161.706 99.6714 161.201 99.6233L141.123 97.7106C141.069 97.7053 141.015 97.7028 140.961 97.7028ZM154.533 130.5H154.535H154.533Z" fill="black"/>
<path d="M139.77 104.271C139.764 104.271 139.759 104.27 139.753 104.268C139.718 104.258 139.698 104.223 139.708 104.188L140.727 100.621C140.97 99.7723 141.784 99.2155 142.663 99.3006L159.752 100.929C159.787 100.933 159.813 100.964 159.81 101C159.807 101.035 159.775 101.062 159.739 101.058L142.651 99.4297C141.837 99.3525 141.077 99.868 140.852 100.656L139.833 104.224C139.824 104.252 139.799 104.271 139.77 104.271Z" fill="black"/>
<path d="M143.443 104.774C143.949 104.85 144.467 104.536 144.6 104.071C144.733 103.607 144.43 103.168 143.924 103.092C143.417 103.015 142.897 103.329 142.764 103.794C142.631 104.258 142.936 104.697 143.443 104.774Z" fill="black"/>
<path d="M142.803 107.012C143.31 107.088 143.828 106.774 143.961 106.309C144.094 105.845 143.791 105.406 143.284 105.33C142.778 105.253 142.257 105.567 142.124 106.032C141.992 106.496 142.297 106.935 142.803 107.012Z" fill="black"/>
<path d="M144.057 116.958C144.057 116.958 144.683 118.644 142.874 119.171C142.874 119.171 143.125 121.429 141.06 121.675C141.06 121.675 141.159 122.725 139.527 123.375C134.727 125.293 126.403 122.478 126.403 122.478L124.214 114.42C124.214 114.42 125.89 110.078 129.488 109.807C133.086 109.536 135.52 105.667 136.679 106.416C137.832 107.161 135.456 112.178 135.456 112.178C135.456 112.178 138.172 114.637 143.362 113.982C144.283 113.858 145.156 114.504 145.234 115.426C145.284 115.983 145.032 116.564 144.057 116.958Z" fill="#FFD8C8"/>
<path d="M144.151 116.917C144.141 116.912 144.137 116.903 144.132 116.893C143.837 116.394 143.894 115.724 143.509 115.297C143.201 114.955 142.706 114.874 142.25 114.812C140.644 114.593 139.033 114.375 137.427 114.156C136.819 114.075 136.206 113.99 135.65 113.733C135.099 113.477 134.605 113.016 134.457 112.427C134.334 111.913 134.481 111.376 134.624 110.868C134.928 109.799 136.541 108.135 135.536 107.661C134.022 106.947 133.507 110.512 131.891 110.963C130.338 111.395 128.437 110.825 127.225 111.89C126.398 112.612 125.828 115.154 124.369 114.327C124.341 114.308 124.308 114.294 124.279 114.27C124.612 113.505 126.289 110.051 129.487 109.808C133.084 109.538 135.522 105.67 136.676 106.416C137.831 107.162 135.455 112.179 135.455 112.179C135.455 112.179 138.173 114.636 143.362 113.98C144.284 113.862 145.153 114.503 145.234 115.425C145.282 115.967 145.049 116.527 144.151 116.917Z" fill="#FE8D7C"/>
<path d="M135.402 124.168C131.335 124.168 127.009 122.813 126.427 122.624C126.421 122.626 126.415 122.627 126.409 122.628C125.132 122.789 95.0358 126.472 88.9548 117.059C83.5742 108.734 94.9173 91.5017 95.0328 91.3285C95.0723 91.2687 95.1538 91.2525 95.2121 91.2923L109.766 100.908C109.819 100.942 109.839 101.01 109.814 101.067L106.51 108.688L124.14 114.262C124.44 113.57 126.17 109.928 129.478 109.679C131.425 109.532 133.009 108.323 134.283 107.35C135.369 106.522 136.154 105.924 136.749 106.308C137.909 107.058 136.002 111.316 135.616 112.143C136.08 112.514 138.738 114.436 143.345 113.854C143.838 113.788 144.342 113.928 144.728 114.238C145.098 114.535 145.324 114.953 145.363 115.416C145.407 115.907 145.238 116.58 144.215 117.033C144.28 117.277 144.386 117.854 144.116 118.391C143.912 118.797 143.54 119.091 143.009 119.266C143.027 119.726 142.977 121.505 141.188 121.789C141.163 122.106 140.962 122.944 139.575 123.497C138.351 123.986 136.893 124.168 135.402 124.168ZM126.402 122.35C126.416 122.35 126.431 122.352 126.444 122.357C126.527 122.384 134.777 125.133 139.479 123.256C140.99 122.653 140.933 121.727 140.93 121.688C140.925 121.618 140.975 121.556 141.044 121.547C142.956 121.319 142.754 119.274 142.745 119.187C142.737 119.124 142.776 119.066 142.837 119.048C143.349 118.899 143.701 118.639 143.884 118.275C144.181 117.684 143.937 117.011 143.935 117.005C143.91 116.939 143.943 116.866 144.008 116.839C144.79 116.523 145.159 116.052 145.105 115.438C145.072 115.046 144.88 114.692 144.566 114.44C144.235 114.174 143.802 114.053 143.379 114.111C138.19 114.765 135.396 112.3 135.369 112.275C135.327 112.237 135.314 112.175 135.339 112.123C135.986 110.756 137.475 107.086 136.608 106.526C136.167 106.241 135.403 106.821 134.44 107.557C133.208 108.497 131.521 109.785 129.497 109.938C126.024 110.199 124.352 114.425 124.335 114.468C124.311 114.532 124.238 114.564 124.175 114.545L106.294 108.892C106.259 108.881 106.231 108.855 106.215 108.822C106.2 108.789 106.2 108.75 106.214 108.717L109.533 101.064L95.1782 91.5805C94.2235 93.0558 84.1045 109.078 89.1726 116.918C95.048 126.013 124.864 122.553 126.323 122.377C126.328 122.374 126.332 122.371 126.336 122.368L126.336 122.367C126.354 122.357 126.382 122.35 126.402 122.35Z" fill="black"/>
<path d="M115.15 91.8617L109.785 102.688C108.853 104.878 92.0196 96.453 92.9517 94.263C97.3936 87.8827 102.236 80.0919 105.997 76.0996L115.15 91.8617Z" fill="#00FFC6"/>
<path d="M108.897 103.18C107.529 103.18 105.133 102.269 103.555 101.599C98.7559 99.5611 92.176 95.7579 92.8319 94.2122C94.0479 92.4611 95.3009 90.5989 96.5123 88.7979C99.7769 83.9461 103.152 78.9291 105.904 76.0106C105.952 75.9582 106.034 75.956 106.087 76.0051C106.139 76.0542 106.141 76.1362 106.092 76.1884C103.356 79.0914 99.9861 84.0995 96.7276 88.9428C95.5151 90.7445 94.2616 92.6075 93.0578 94.337C92.5625 95.511 98.446 99.1479 103.656 101.361C107.027 102.792 109.385 103.294 109.663 102.639L115.034 91.8055C115.065 91.7414 115.143 91.7156 115.208 91.7468C115.271 91.7787 115.298 91.8564 115.266 91.9205L109.899 102.747C109.768 103.055 109.403 103.18 108.897 103.18Z" fill="black"/>
<path d="M153.681 156.514C153.626 156.514 153.571 156.506 153.515 156.491C153.186 156.399 152.993 156.058 153.085 155.729L154.978 148.912C155.242 147.96 155.542 146.88 155.768 145.831C155.84 145.497 156.171 145.285 156.503 145.357C156.837 145.429 157.05 145.758 156.978 146.092C156.744 147.176 156.439 148.274 156.17 149.243L154.277 156.06C154.201 156.334 153.952 156.514 153.681 156.514Z" fill="white"/>
<path d="M156.812 142.628C156.476 142.628 156.201 142.359 156.194 142.022C156.168 140.849 155.939 139.702 155.532 138.707C155.087 137.621 154.451 136.744 153.641 136.101C151.646 134.515 148.825 134.442 145.864 134.505C145.525 134.52 145.24 134.241 145.232 133.899C145.225 133.558 145.496 133.275 145.838 133.268C149.033 133.197 152.093 133.29 154.411 135.132C155.388 135.909 156.151 136.954 156.677 138.238C157.141 139.373 157.402 140.672 157.431 141.996C157.438 142.337 157.167 142.62 156.825 142.628C156.821 142.628 156.816 142.628 156.812 142.628Z" fill="white"/>
<g opacity="0.3">
<g opacity="0.3">
<path opacity="0.3" d="M142.353 175.349C142.619 176.013 142.982 176.719 143.646 176.985C144.378 177.277 145.24 176.906 145.755 176.31C146.27 175.714 146.515 174.937 146.748 174.184C147.248 172.562 147.751 170.923 147.881 169.23C148.062 166.853 145.708 159.971 142.261 163.084C139.58 165.504 141.226 172.54 142.353 175.349Z" fill="white"/>
</g>
</g>
<path d="M185.569 181.746C185.344 181.746 185.119 181.654 184.956 181.474L182.472 178.719C182.167 178.381 182.194 177.859 182.532 177.554C182.87 177.249 183.392 177.276 183.697 177.614L186.181 180.369C186.486 180.707 186.459 181.229 186.121 181.534C185.963 181.676 185.766 181.746 185.569 181.746Z" fill="white"/>
<path d="M179.403 174.909C179.178 174.909 178.953 174.818 178.79 174.637L172.624 167.799C172.319 167.461 172.346 166.939 172.685 166.634C173.023 166.329 173.544 166.356 173.85 166.694L180.015 173.532C180.321 173.871 180.294 174.392 179.955 174.697C179.798 174.839 179.6 174.909 179.403 174.909Z" fill="white"/>
<g opacity="0.4">
<g opacity="0.4">
<g opacity="0.4">
<g opacity="0.4">
<path opacity="0.4" d="M114.683 121.585C113.265 121.585 111.847 121.532 110.434 121.428C110.027 121.398 109.721 121.043 109.751 120.636C109.781 120.229 110.136 119.929 110.543 119.953C113.812 120.195 117.116 120.149 120.362 119.817C120.765 119.775 121.131 120.072 121.172 120.478C121.214 120.884 120.918 121.247 120.512 121.288C118.583 121.486 116.634 121.585 114.683 121.585Z" fill="white"/>
</g>
</g>
</g>
<g opacity="0.4">
<g opacity="0.4">
<g opacity="0.4">
<path opacity="0.4" d="M105.738 120.876C105.699 120.876 105.66 120.874 105.62 120.867C104.136 120.631 102.644 120.332 101.184 119.979C100.787 119.883 100.543 119.483 100.639 119.087C100.735 118.69 101.134 118.445 101.531 118.542C102.953 118.886 104.408 119.177 105.853 119.407C106.256 119.471 106.531 119.85 106.467 120.254C106.409 120.617 106.095 120.876 105.738 120.876Z" fill="white"/>
</g>
</g>
</g>
</g>
<path d="M141.758 117.119C141.141 117.119 140.482 117.112 139.893 117.091C139.822 117.089 139.766 117.029 139.768 116.957C139.771 116.885 139.842 116.837 139.902 116.832C141.651 116.895 144.028 116.833 144.051 116.832C144.052 116.832 144.053 116.832 144.054 116.832C144.124 116.832 144.182 116.888 144.184 116.958C144.186 117.03 144.129 117.089 144.058 117.091C144.042 117.092 142.982 117.119 141.758 117.119Z" fill="black"/>
<path d="M142.422 119.309C141.666 119.309 140.117 119.285 138.984 119.103C138.914 119.092 138.866 119.025 138.877 118.955C138.888 118.884 138.952 118.837 139.026 118.847C140.547 119.091 142.846 119.047 142.869 119.047C142.943 119.058 142.999 119.102 143.001 119.174C143.003 119.245 142.946 119.305 142.874 119.306C142.868 119.306 142.698 119.309 142.422 119.309Z" fill="black"/>
<path d="M141.059 121.808C141.054 121.808 141.049 121.808 141.044 121.807C141.031 121.805 139.679 121.648 138.463 121.4C138.393 121.386 138.347 121.318 138.362 121.247C138.376 121.177 138.446 121.132 138.515 121.146C139.72 121.391 141.061 121.548 141.074 121.549C141.145 121.558 141.196 121.622 141.188 121.693C141.18 121.759 141.124 121.808 141.059 121.808Z" fill="black"/>
<path d="M147.275 57.3439C147.275 57.3439 142.366 74.6223 142.929 76.4406C143.492 78.259 143.409 78.5854 142.791 79.6901C140.69 83.4403 128.291 76.5715 128.862 74.4896L132.395 64.6966L138.871 59.9887L145.879 55.7266L147.275 57.3439Z" fill="#043844"/>
<path d="M140.274 80.9879C139.168 80.9879 137.782 80.6817 136.18 80.0666C132.521 78.662 128.386 75.8468 128.737 74.4576L132.273 64.6524C132.282 64.6281 132.298 64.6068 132.318 64.5916L138.795 59.8836L145.812 55.6157C145.866 55.5828 145.937 55.5934 145.978 55.6415L147.374 57.2589C147.402 57.2921 147.412 57.3371 147.4 57.3792C145.705 63.3424 142.617 74.9927 143.053 76.4022C143.63 78.2657 143.509 78.6065 142.905 79.7504C142.471 80.5739 141.561 80.9879 140.274 80.9879ZM132.503 64.778L128.984 74.5334C128.713 75.6101 132.525 78.3857 136.273 79.8246C137.847 80.4293 141.625 81.6204 142.676 79.6293C143.251 78.5409 143.353 78.249 142.804 76.4786C142.249 74.684 146.75 58.723 147.132 57.3756L145.853 55.8942L138.939 60.0991L132.503 64.778Z" fill="black"/>
<path d="M125.881 62.0636L121.791 71.242L121.278 72.4013C121.278 72.4013 122.219 73.3994 123.515 74.5658C125.518 76.3783 128.371 78.5943 129.866 78.1236C131.755 77.5359 132.787 70.77 132.787 70.77L133.622 71.1553C137.188 72.7822 141.383 71.0199 142.714 67.3334L145.838 58.6721L146.023 58.1597L147.343 54.4953L132.641 51.1455L131.6 52.7099L128.513 57.3281C128.513 57.3281 125.037 52.4939 123.049 56.1346C121.063 59.7708 125.881 62.0636 125.881 62.0636Z" fill="#FFD8C8"/>
<path d="M125.881 62.0636L121.791 71.242L121.278 72.4013C121.278 72.4013 122.219 73.3994 123.515 74.5658C123.872 71.2574 124.305 67.377 124.53 67.0948C125.274 66.1741 125.939 65.1868 126.521 64.1512C126.811 63.633 127.084 63.0769 127.106 62.4787C127.148 61.3845 126.329 60.4534 125.465 59.7867C125.134 59.5353 124.791 59.2957 124.523 58.9847C124.251 58.6681 124.059 58.2616 124.112 57.852C124.193 57.1931 124.905 56.7364 125.569 56.7936C126.233 56.8506 126.801 57.3082 127.165 57.8663C127.385 58.1958 127.545 58.5706 127.771 58.8964C127.995 59.2267 128.31 59.5238 128.701 59.5976C129.24 59.705 129.789 59.3633 130.098 58.9083C130.412 58.4546 130.546 57.9061 130.704 57.378C130.915 56.685 131.188 56.0013 131.508 55.3476C131.689 54.9816 132.013 54.025 132.465 53.936C132.689 53.8984 133.037 54.0753 133.273 54.0945C133.546 54.122 133.823 54.1112 134.094 54.0647C134.384 54.0176 135.48 53.7506 135.56 53.3961C135.479 53.8191 135.677 54.2661 135.968 54.5824C136.268 54.9053 136.656 55.1206 137.042 55.3209C139.832 56.777 142.789 57.9078 145.838 58.6721L146.023 58.1597L147.343 54.4953L132.641 51.1455L131.6 52.7099L128.513 57.3281C128.513 57.3281 125.037 52.4939 123.049 56.1346C121.063 59.7708 125.881 62.0636 125.881 62.0636Z" fill="#FF8F7A"/>
<path d="M129.429 78.3172C126.712 78.3174 121.418 72.7424 121.181 72.4904C121.145 72.4524 121.135 72.3964 121.157 72.3488L125.71 62.1232C125.204 61.8604 123.196 60.7198 122.603 58.8915C122.304 57.9715 122.416 57.0225 122.935 56.0703C123.424 55.1744 124.049 54.6968 124.791 54.651C124.831 54.6484 124.871 54.6472 124.911 54.6472C126.491 54.6472 128.075 56.5476 128.507 57.1055L132.534 51.0713C132.563 51.0268 132.618 51.005 132.67 51.0169L147.371 54.3676C147.407 54.3757 147.438 54.3993 147.456 54.4317C147.474 54.4643 147.477 54.5031 147.464 54.538L142.835 67.377C142.189 69.1688 140.811 70.6195 139.055 71.3572C137.299 72.0943 135.299 72.0629 133.568 71.2711L132.888 70.9589C132.71 72.0409 131.7 77.6892 129.905 78.2496C129.757 78.2957 129.598 78.3172 129.429 78.3172ZM121.429 72.3747C122.066 73.0366 127.59 78.6975 129.828 78.0019C131.618 77.443 132.648 70.8171 132.658 70.7502C132.664 70.7099 132.689 70.675 132.725 70.6555C132.76 70.6365 132.803 70.6342 132.841 70.652L133.676 71.0353C135.341 71.7973 137.265 71.8279 138.955 71.1182C140.644 70.4086 141.969 69.0128 142.591 67.2888L147.171 54.5879L132.7 51.2896L128.621 57.4015C128.597 57.437 128.557 57.4585 128.515 57.4593C128.514 57.4593 128.513 57.4593 128.513 57.4593C128.471 57.4593 128.432 57.4393 128.408 57.4053C128.389 57.3795 126.522 54.7945 124.808 54.9098C124.16 54.95 123.606 55.3823 123.163 56.1944C122.679 57.0815 122.574 57.9619 122.85 58.8115C123.482 60.7596 125.91 61.9343 125.934 61.946C125.997 61.9761 126.025 62.0516 125.997 62.1156L121.429 72.3747Z" fill="black"/>
<path d="M115.924 76.3566C117.111 77.6162 121.278 72.401 121.278 72.401L125.878 62.0636C125.878 62.0636 121.065 59.7727 123.049 56.1328C125.035 52.4957 128.513 57.3302 128.513 57.3302C128.513 57.3302 127.817 58.6939 129.168 58.8362C130.517 58.9776 131.598 52.7097 131.598 52.7097L134.107 53.1989L135.387 52.5268L136.196 54.0285C136.196 54.0285 142.934 57.5713 146.022 58.1586C146.536 58.2572 146.948 58.2728 147.211 58.1757C149.056 57.5022 152.724 48.8288 146.017 43.7473C139.313 38.6646 134.685 44.0873 134.685 44.0873C124.204 36.325 121.733 50.1816 119.336 50.976C116.941 51.7683 108.255 61.5017 107.87 66.236C107.508 70.7041 114.735 75.0962 115.924 76.3566Z" fill="#043844"/>
<path d="M116.384 76.6717C116.16 76.6717 115.974 76.596 115.831 76.4466C115.591 76.1966 115.094 75.8087 114.464 75.3177C112.011 73.4058 107.446 69.8469 107.741 66.2258C108.133 61.4208 116.764 51.6907 119.296 50.8533C119.885 50.6581 120.54 49.5026 121.298 48.1648C122.678 45.7305 124.567 42.3965 127.732 41.7257C129.762 41.295 132.094 42.0318 134.669 43.9146C135.326 43.2253 139.855 38.9141 146.096 43.6444C150.169 46.7307 150.22 50.9014 149.888 53.1126C149.486 55.7862 148.203 57.9523 147.256 58.298C146.98 58.399 146.569 58.396 145.998 58.2863C142.927 57.7021 136.412 54.2886 136.136 54.1435C136.114 54.1316 136.095 54.1131 136.083 54.0903L135.334 52.7016L134.167 53.3139C134.141 53.3276 134.111 53.3319 134.082 53.3266L131.703 52.8627C131.514 53.9164 130.541 58.968 129.21 58.9685C129.192 58.9685 129.174 58.9675 129.155 58.9655C128.739 58.9217 128.454 58.7636 128.309 58.496C128.085 58.0827 128.278 57.5428 128.363 57.3463C128.068 56.9569 126.369 54.7976 124.808 54.9108C124.16 54.951 123.607 55.3833 123.164 56.1954C122.687 57.068 122.589 57.9288 122.87 58.7535C123.532 60.6953 126.084 61.8388 126.11 61.85C126.141 61.8639 126.166 61.89 126.178 61.9222C126.191 61.9541 126.19 61.99 126.176 62.0214L121.575 72.359C121.561 72.3914 121.535 72.4152 121.503 72.4273C121.445 72.4841 121.287 72.6595 121.121 72.8439C120.097 73.9832 117.699 76.6507 116.399 76.6714C116.394 76.6714 116.389 76.6717 116.384 76.6717ZM116.018 76.2673C116.114 76.3676 116.248 76.4213 116.395 76.4121C117.582 76.3934 120.013 73.6887 120.928 72.6707C121.163 72.4094 121.283 72.2759 121.356 72.2134L125.887 62.0326C125.357 61.7773 123.248 60.6644 122.625 58.8381C122.319 57.9414 122.424 57.0105 122.936 56.0713C123.425 55.1754 124.049 54.6978 124.792 54.652C124.832 54.6494 124.872 54.6482 124.911 54.6482C126.722 54.6482 128.541 57.1463 128.619 57.2549C128.647 57.2942 128.65 57.3463 128.629 57.3894C128.626 57.3955 128.329 57.9898 128.537 58.3729C128.639 58.5608 128.856 58.6732 129.182 58.7077C129.193 58.7087 129.205 58.7095 129.215 58.7095C130.101 58.7095 131.066 55.0359 131.47 52.6882C131.476 52.6538 131.496 52.6234 131.525 52.6036C131.553 52.5836 131.588 52.5758 131.623 52.5829L134.087 53.0632L135.327 52.4124C135.39 52.3793 135.468 52.4033 135.501 52.4656L136.292 53.9323C136.821 54.2081 143.128 57.4762 146.046 58.0316C146.562 58.1306 146.94 58.1382 147.167 58.0546C147.909 57.7834 149.214 55.8538 149.631 53.0741C149.955 50.9197 149.906 46.8566 145.939 43.851C139.41 38.8999 134.83 44.119 134.784 44.1719C134.74 44.2243 134.662 44.2327 134.608 44.1919C132.059 42.3046 129.764 41.5601 127.785 41.9794C124.735 42.6259 122.879 45.9012 121.524 48.2927C120.707 49.7343 120.061 50.8728 119.378 51.0994C116.946 51.9037 108.374 61.655 108 66.247C107.716 69.7284 112.209 73.2313 114.624 75.1133C115.262 75.6107 115.766 76.0037 116.018 76.2673Z" fill="black"/>
<path d="M137.016 65.1835C136.886 65.1835 136.75 65.1617 136.613 65.1174C136.318 65.0222 136.067 64.8454 135.824 64.6742C135.766 64.633 135.752 64.5522 135.793 64.4937C135.834 64.4352 135.915 64.421 135.974 64.4626C136.2 64.6223 136.435 64.7877 136.693 64.8708C136.962 64.9579 137.233 64.9356 137.416 64.8118C137.699 64.6211 137.78 64.225 137.851 63.8753C138.247 61.9389 138.943 60.086 139.922 58.3689C139.957 58.3068 140.036 58.2856 140.099 58.3205C140.161 58.356 140.182 58.4352 140.147 58.4975C139.182 60.1906 138.495 62.0176 138.105 63.9272C138.028 64.3058 137.932 64.7768 137.561 65.0265C137.407 65.1306 137.219 65.1835 137.016 65.1835Z" fill="black"/>
<path d="M132.787 70.7701C132.787 70.7701 130.002 68.8332 128.97 67.127L132.091 73.8406L132.787 70.7701Z" fill="black"/>
<path d="M132.092 73.9704C132.042 73.9704 131.996 73.9415 131.974 73.8954L128.853 67.1816C128.824 67.119 128.849 67.0448 128.91 67.0124C128.97 66.9797 129.046 67.001 129.082 67.0598C130.087 68.7232 132.834 70.6445 132.861 70.6637C132.905 70.6938 132.926 70.7473 132.914 70.7987L132.219 73.8693C132.206 73.9235 132.161 73.9638 132.106 73.9696C132.101 73.9701 132.097 73.9704 132.092 73.9704ZM129.601 68.1747L132.049 73.4416L132.641 70.826C132.282 70.5703 130.71 69.4254 129.601 68.1747Z" fill="black"/>
<path d="M136.079 59.9154C136.641 59.9154 137.097 59.4597 137.097 58.8976C137.097 58.3355 136.641 57.8799 136.079 57.8799C135.517 57.8799 135.062 58.3355 135.062 58.8976C135.062 59.4597 135.517 59.9154 136.079 59.9154Z" fill="black"/>
<path d="M135.464 56.2754C135.41 56.5543 135.591 56.8261 135.862 56.9029C136.332 57.0364 136.788 57.2176 137.222 57.4428C137.472 57.5724 137.79 57.499 137.942 57.259C138.016 57.1391 138.03 56.9928 137.987 56.8632C137.943 56.7277 137.841 56.605 137.696 56.5292C137.201 56.2716 136.68 56.0654 136.143 55.9126C135.826 55.8223 135.518 55.9971 135.464 56.2754Z" fill="black"/>
<path d="M142.33 62.3968C142.892 62.3968 143.347 61.9412 143.347 61.3791C143.347 60.817 142.892 60.3613 142.33 60.3613C141.767 60.3613 141.312 60.817 141.312 61.3791C141.312 61.9412 141.767 62.3968 142.33 62.3968Z" fill="black"/>
<path d="M141.714 58.7569C141.66 59.0357 141.841 59.3076 142.112 59.3844C142.583 59.5178 143.038 59.699 143.472 59.9242C143.722 60.0539 144.04 59.9805 144.192 59.7404C144.266 59.6205 144.28 59.4742 144.237 59.3447C144.194 59.2092 144.091 59.0865 143.947 59.0106C143.451 58.7531 142.931 58.5468 142.393 58.394C142.076 58.3038 141.768 58.4786 141.714 58.7569Z" fill="black"/>
<path d="M136.169 68.084C136.167 68.084 136.165 68.084 136.163 68.0838C135.198 68.0346 134.346 67.9513 133.677 67.4287C133.275 67.1144 132.993 66.6667 132.884 66.1683C132.869 66.0985 132.913 66.0293 132.983 66.0139C133.055 65.9982 133.122 66.043 133.137 66.1126C133.232 66.5459 133.488 66.9511 133.837 67.2246C134.445 67.7004 135.256 67.7779 136.176 67.825C136.247 67.8285 136.302 67.8895 136.299 67.961C136.295 68.0303 136.238 68.084 136.169 68.084Z" fill="black"/>
<path d="M125.632 59.6489C125.618 59.6489 125.606 59.6486 125.592 59.6481C125.26 59.6349 124.961 59.4893 124.688 59.3338C124.398 59.1692 124.074 58.958 123.866 58.6405C123.672 58.3437 123.578 57.8861 123.806 57.5324C123.95 57.3078 124.206 57.149 124.567 57.0604C125.492 56.8337 126.505 57.1376 127.151 57.8332C127.2 57.8856 127.197 57.9677 127.144 58.0163C127.092 58.0659 127.01 58.0621 126.961 58.0095C126.387 57.3911 125.45 57.1115 124.629 57.3121C124.334 57.3842 124.131 57.5055 124.023 57.6727C123.859 57.9287 123.935 58.2718 124.083 58.4984C124.26 58.7696 124.553 58.9591 124.816 59.1085C125.061 59.2477 125.326 59.3779 125.603 59.3888C125.837 59.4053 126.123 59.2991 126.228 59.0611C126.318 58.8583 126.241 58.579 126.049 58.4113C125.873 58.2581 125.6 58.1784 125.313 58.1986C125.31 58.1989 125.308 58.1989 125.305 58.1989C125.237 58.1989 125.18 58.1459 125.176 58.0771C125.172 58.0057 125.226 57.9441 125.297 57.9398C125.666 57.9183 125.99 58.0155 126.219 58.2158C126.498 58.4592 126.602 58.8588 126.465 59.1662C126.316 59.5025 125.946 59.6489 125.632 59.6489Z" fill="black"/>
<path d="M188.652 79.0103L177.252 80.3691C175.982 80.5195 174.825 79.6119 174.67 78.3361L172.632 61.2635C172.481 59.9877 173.389 58.8312 174.665 58.6808L186.059 57.322C187.334 57.1664 188.491 58.0792 188.641 59.3498L190.679 76.4276C190.835 77.6983 189.922 78.8547 188.652 79.0103Z" fill="#0217EB"/>
<g opacity="0.3">
<g opacity="0.3">
<g opacity="0.3">
<path opacity="0.3" d="M187.755 62.1792C187.586 62.1994 187.432 62.0788 187.412 61.9098L187.219 60.2966C187.125 59.5077 186.407 58.9425 185.618 59.0367L184.444 59.1769C184.275 59.1971 184.122 59.0765 184.101 58.9075C184.081 58.7385 184.202 58.5852 184.371 58.565L185.545 58.4248C186.671 58.2903 187.697 59.0972 187.831 60.2236L188.024 61.8367C188.044 62.0057 187.924 62.159 187.755 62.1792Z" fill="white"/>
</g>
</g>
</g>
<path d="M178.574 58.2149L175.106 58.6289L177.697 80.3171L181.164 79.903L178.574 58.2149Z" fill="black"/>
<path d="M176.973 80.5168C176.426 80.5168 175.898 80.335 175.461 79.9914C174.946 79.5865 174.62 79.0051 174.542 78.3545L172.503 61.2801C172.425 60.6295 172.606 59.9876 173.011 59.4725C173.416 58.9577 173.997 58.6313 174.648 58.5536L186.043 57.1927C186.692 57.1142 187.336 57.2953 187.851 57.7005C188.366 58.1054 188.692 58.6868 188.77 59.3373L190.809 76.4118C190.969 77.7549 190.007 78.978 188.664 79.1383L177.269 80.4991C177.17 80.511 177.071 80.5168 176.973 80.5168ZM186.339 57.4343C186.251 57.4343 186.162 57.4396 186.074 57.45L174.679 58.8109C174.097 58.8805 173.577 59.1725 173.214 59.6328C172.852 60.0935 172.691 60.6675 172.761 61.2492L174.8 78.3236C174.869 78.9055 175.161 79.4254 175.622 79.7878C176.082 80.1504 176.657 80.3097 177.238 80.2418L188.634 78.881C189.835 78.7374 190.695 77.6435 190.552 76.4426L188.512 59.3682C188.443 58.7863 188.151 58.2664 187.69 57.9041C187.3 57.5969 186.828 57.4343 186.339 57.4343ZM188.649 79.0096H188.652H188.649Z" fill="black"/>
<path d="M177.435 67.1804C177.306 67.1804 177.194 67.0837 177.179 66.9518L176.738 63.2655C176.721 63.1235 176.823 62.9943 176.965 62.9773C177.106 62.9609 177.236 63.0614 177.253 63.2042L177.693 66.8905C177.71 67.0326 177.609 67.1617 177.467 67.1787C177.456 67.1799 177.446 67.1804 177.435 67.1804Z" fill="white"/>
<path d="M176.856 62.3217C176.727 62.3217 176.615 62.225 176.599 62.093L176.416 60.5577C176.399 60.4156 176.501 60.2865 176.642 60.2695C176.78 60.2521 176.913 60.3536 176.931 60.4964L177.114 62.0317C177.131 62.1738 177.029 62.303 176.888 62.3199C176.877 62.3212 176.867 62.3217 176.856 62.3217Z" fill="white"/>
<path d="M188.235 72.0582L184.904 72.4561L185.448 77.0114L188.779 76.6135L188.235 72.0582Z" fill="white"/>
<path d="M178.588 84.2273C178.588 84.2273 179.486 78.0212 179.223 75.9667C178.948 73.814 177.238 67.5549 174.945 68.4133C172.745 69.2373 173.811 73.0928 173.716 74.5581C173.412 79.2345 172.533 82.4414 172.533 82.4414" fill="#FFD8C8"/>
<path d="M178.588 84.357C178.582 84.357 178.576 84.3565 178.569 84.3558C178.498 84.3454 178.449 84.2798 178.46 84.2089C178.469 84.1468 179.352 77.9967 179.095 75.9833C178.872 74.2411 177.665 69.6571 175.999 68.6523C175.658 68.4464 175.329 68.4085 174.991 68.5348C173.411 69.1261 173.621 71.4533 173.774 73.1524C173.825 73.7171 173.869 74.2046 173.845 74.5665C173.544 79.2023 172.667 82.4434 172.659 82.4755C172.64 82.5447 172.571 82.5854 172.499 82.5664C172.43 82.5474 172.39 82.476 172.408 82.4072C172.417 82.3753 173.287 79.1575 173.587 74.5497C173.609 74.2079 173.566 73.7295 173.516 73.1757C173.355 71.3935 173.135 68.9526 174.9 68.292C175.311 68.1378 175.726 68.1846 176.133 68.4302C177.977 69.5424 179.154 74.4011 179.352 75.9503C179.614 77.9987 178.753 83.9919 178.716 84.2459C178.707 84.3104 178.651 84.357 178.588 84.357Z" fill="black"/>
<path d="M191.389 74.417C190.924 74.3663 187.516 75.6977 187.516 75.6977C187.516 75.6977 185.606 76.643 185.096 75.3467C183.974 72.5032 189.435 69.4517 189.581 69.3701L189.583 69.3705C190.096 69.6293 192.114 70.8884 191.389 74.417Z" fill="#FFD8C8"/>
<path d="M186.193 76.1608C186.001 76.1608 185.809 76.1342 185.632 76.0661C185.325 75.9476 185.104 75.722 184.976 75.3951C183.845 72.5298 188.934 69.5842 189.518 69.2576C189.546 69.2414 189.582 69.2373 189.613 69.2449C190.087 69.4799 192.268 70.7848 191.517 74.4437C191.503 74.509 191.452 74.5541 191.375 74.5465C191.049 74.507 188.869 75.309 187.563 75.8192C187.535 75.8334 186.864 76.1608 186.193 76.1608ZM189.584 69.5181C188.958 69.8777 184.197 72.7157 185.217 75.2998C185.32 75.5602 185.486 75.7316 185.726 75.824C186.416 76.0897 187.448 75.5875 187.458 75.5822C187.798 75.4493 190.54 74.3839 191.282 74.2933C191.902 71.0879 190.218 69.858 189.584 69.5181Z" fill="black"/>
<path d="M190.343 79.6755C190.343 79.6755 186.824 81.706 185.498 80.9667C184.172 80.2275 186.346 75.644 188.12 74.5991C189.407 73.8401 191.388 74.4168 191.388 74.4168C191.219 76.5013 191.426 78.4333 190.343 79.6755Z" fill="#FFD8C8"/>
<path d="M186.242 81.2547C185.933 81.2547 185.656 81.2026 185.433 81.0782C185.124 80.9058 184.964 80.5617 184.958 80.056C184.939 78.3869 186.646 75.3143 188.056 74.4834C189.375 73.7063 191.342 74.2677 191.426 74.292C191.494 74.312 191.534 74.3839 191.514 74.4525C191.494 74.5214 191.422 74.5594 191.353 74.5409C191.334 74.5351 189.41 73.9866 188.187 74.7068C186.836 75.5034 185.199 78.4512 185.218 80.0529C185.223 80.4591 185.338 80.7278 185.56 80.8519C186.807 81.5467 190.242 79.5804 190.276 79.5606C190.337 79.5244 190.416 79.5457 190.453 79.608C190.489 79.67 190.468 79.7493 190.406 79.785C190.283 79.8559 187.84 81.2547 186.242 81.2547Z" fill="black"/>
<path d="M191.082 81.0937L191.329 79.9355C191.402 80.3446 191.289 80.734 191.082 81.0937Z" fill="#FE8D7C"/>
<path d="M244.803 203.353C244.794 203.353 244.785 203.352 244.776 203.35C244.706 203.335 244.662 203.266 244.677 203.196L247.788 188.995C247.803 188.925 247.871 188.882 247.942 188.896C248.012 188.912 248.056 188.981 248.041 189.051L244.93 203.252C244.917 203.312 244.863 203.353 244.803 203.353Z" fill="#000712"/>
<path d="M242.668 203.232C242.602 203.232 242.546 203.182 242.539 203.115L240.201 180.66C240.194 180.589 240.245 180.525 240.316 180.518C240.39 180.512 240.451 180.562 240.459 180.634L242.797 203.089C242.804 203.16 242.753 203.223 242.682 203.231C242.677 203.231 242.673 203.232 242.668 203.232Z" fill="#000712"/>
<path d="M241.912 195.515C241.893 195.515 241.873 195.511 241.855 195.502C241.79 195.47 241.764 195.392 241.795 195.328L250.022 178.651C250.054 178.587 250.133 178.561 250.195 178.592C250.26 178.624 250.286 178.702 250.255 178.766L242.028 195.443C242.006 195.488 241.959 195.515 241.912 195.515Z" fill="#000712"/>
<path d="M248.815 215.991H238.624L235.18 203.223H252.26L248.815 215.991Z" fill="white"/>
<path d="M248.815 216.12H238.624C238.565 216.12 238.514 216.081 238.499 216.024L235.055 203.256C235.044 203.217 235.052 203.176 235.077 203.144C235.101 203.112 235.139 203.093 235.18 203.093H252.26C252.3 203.093 252.338 203.112 252.362 203.144C252.387 203.176 252.395 203.217 252.385 203.256L248.94 216.024C248.925 216.081 248.873 216.12 248.815 216.12ZM238.723 215.861H248.715L252.09 203.352H235.349L238.723 215.861Z" fill="#000712"/>
<path d="M248.729 190.777C250.082 190.777 251.178 189.68 251.178 188.328C251.178 186.975 250.082 185.879 248.729 185.879C247.377 185.879 246.281 186.975 246.281 188.328C246.281 189.68 247.377 190.777 248.729 190.777Z" fill="white"/>
<path d="M252.736 196.357C252.423 200.391 248.891 203.41 244.852 203.103L244.846 203.091C244.94 201.871 245.329 200.738 245.943 199.765C246.338 199.14 246.827 198.58 247.387 198.097C247.924 197.637 248.526 197.253 249.18 196.965C250.259 196.481 251.468 196.257 252.73 196.351L252.736 196.357Z" fill="#00FFC6"/>
<path d="M248.39 199.14C247.547 199.983 246.456 200.254 245.942 199.765C246.337 199.14 246.827 198.58 247.387 198.096C247.924 197.636 248.525 197.253 249.18 196.964C249.41 197.53 249.097 198.426 248.39 199.14Z" fill="white"/>
<path d="M245.413 203.253C245.224 203.253 245.034 203.246 244.842 203.231C244.808 203.228 244.777 203.213 244.754 203.187L244.747 203.179C244.724 203.153 244.712 203.119 244.715 203.084C244.869 201.1 245.788 199.294 247.303 197.998C248.815 196.704 250.743 196.074 252.737 196.22C252.771 196.223 252.803 196.239 252.826 196.265C252.848 196.292 252.866 196.334 252.863 196.368C252.56 200.272 249.275 203.253 245.413 203.253ZM244.984 202.981C248.854 203.209 252.229 200.322 252.594 196.471C250.713 196.362 248.9 196.972 247.471 198.195C246.041 199.419 245.16 201.115 244.984 202.981Z" fill="#000712"/>
<path d="M244.851 203.232C244.815 203.232 244.779 203.217 244.753 203.187C244.707 203.133 244.713 203.051 244.767 203.004L250.152 198.397C250.206 198.351 250.288 198.357 250.335 198.411C250.381 198.466 250.375 198.548 250.32 198.594L244.936 203.201C244.911 203.222 244.881 203.232 244.851 203.232Z" fill="#000712"/>
<path d="M248.969 183.676C252.811 183.676 255.925 180.561 255.925 176.72C255.925 172.878 252.811 169.764 248.969 169.764C245.128 169.764 242.013 172.878 242.013 176.72C242.013 180.561 245.128 183.676 248.969 183.676Z" fill="#00FFC6"/>
<path d="M254.294 177.31C253.968 177.31 253.704 177.045 253.704 176.72C253.704 175.542 253.269 174.413 252.479 173.541C252.26 173.3 252.278 172.927 252.52 172.708C252.761 172.49 253.134 172.508 253.353 172.749C254.34 173.839 254.883 175.249 254.883 176.72C254.883 177.045 254.619 177.31 254.294 177.31Z" fill="white"/>
<path d="M248.969 183.806C245.062 183.806 241.884 180.627 241.884 176.72C241.884 172.813 245.062 169.635 248.969 169.635C250.064 169.635 251.113 169.877 252.088 170.356C252.152 170.388 252.179 170.465 252.147 170.53C252.116 170.594 252.037 170.62 251.974 170.589C251.035 170.128 250.024 169.894 248.969 169.894C245.205 169.894 242.143 172.956 242.143 176.72C242.143 180.484 245.205 183.547 248.969 183.547C249.453 183.547 249.935 183.496 250.402 183.396C250.473 183.38 250.54 183.426 250.555 183.496C250.57 183.566 250.526 183.635 250.455 183.65C249.971 183.754 249.471 183.806 248.969 183.806Z" fill="#000712"/>
<path d="M253.001 182.519C252.96 182.519 252.92 182.501 252.895 182.465C252.854 182.407 252.867 182.326 252.925 182.284C253.555 181.836 254.101 181.288 254.547 180.657C254.589 180.599 254.67 180.585 254.728 180.626C254.786 180.668 254.8 180.749 254.759 180.807C254.296 181.462 253.73 182.03 253.076 182.495C253.053 182.512 253.027 182.519 253.001 182.519Z" fill="#000712"/>
<path d="M239.791 183.676C244.558 183.676 248.423 179.812 248.423 175.044C248.423 170.277 244.558 166.412 239.791 166.412C235.023 166.412 231.159 170.277 231.159 175.044C231.159 179.812 235.023 183.676 239.791 183.676Z" fill="#0217EB"/>
<path d="M233.587 175.633C233.261 175.633 232.997 175.369 232.997 175.044C232.997 171.298 236.045 168.25 239.791 168.25C240.117 168.25 240.381 168.514 240.381 168.84C240.381 169.165 240.117 169.429 239.791 169.429C236.695 169.429 234.177 171.948 234.177 175.044C234.177 175.369 233.913 175.633 233.587 175.633Z" fill="white"/>
<path d="M248.729 190.907C247.308 190.907 246.151 189.75 246.151 188.329C246.151 186.907 247.308 185.75 248.729 185.75C249.418 185.75 250.066 186.018 250.552 186.505C250.603 186.556 250.603 186.638 250.552 186.688C250.502 186.739 250.42 186.739 250.369 186.688C249.931 186.251 249.349 186.009 248.729 186.009C247.45 186.009 246.41 187.05 246.41 188.329C246.41 189.607 247.45 190.648 248.729 190.648C249.327 190.648 249.895 190.421 250.328 190.009C250.379 189.96 250.461 189.962 250.511 190.014C250.561 190.066 250.559 190.148 250.506 190.197C250.025 190.655 249.394 190.907 248.729 190.907Z" fill="#000712"/>
<path d="M239.791 183.806C234.96 183.806 231.029 179.876 231.029 175.044C231.029 171.421 233.206 168.221 236.576 166.891C236.643 166.864 236.718 166.898 236.744 166.964C236.77 167.031 236.738 167.106 236.671 167.133C233.401 168.423 231.289 171.529 231.289 175.044C231.289 179.733 235.103 183.547 239.791 183.547C240.377 183.547 240.963 183.487 241.532 183.369C241.601 183.352 241.67 183.399 241.685 183.469C241.699 183.539 241.655 183.608 241.584 183.623C240.998 183.744 240.395 183.806 239.791 183.806Z" fill="#000712"/>
<path d="M242.617 203.097L242.611 203.103C237.433 202.572 233.665 197.955 234.184 192.789L234.196 192.777C235.369 192.901 236.466 193.231 237.463 193.733C238.666 194.334 239.709 195.183 240.547 196.203C241.213 197.017 241.744 197.943 242.104 198.945C242.575 200.231 242.764 201.64 242.617 203.097Z" fill="#00FFC6"/>
<path d="M242.103 198.945C238.889 198.927 237.026 196.799 237.462 193.732C238.665 194.334 239.709 195.183 240.546 196.203C241.213 197.017 241.744 197.943 242.103 198.945Z" fill="white"/>
<path d="M242.609 203.232C242.571 203.232 242.534 203.216 242.509 203.185L236.755 196.139C236.71 196.084 236.718 196.002 236.774 195.957C236.829 195.912 236.911 195.92 236.956 195.975L242.709 203.021C242.755 203.076 242.746 203.158 242.691 203.203C242.667 203.223 242.638 203.232 242.609 203.232Z" fill="#000712"/>
<path d="M242.604 203.233C242.601 203.233 242.598 203.232 242.595 203.232C237.36 202.693 233.529 198.003 234.057 192.776C234.06 192.741 234.078 192.709 234.105 192.687C234.132 192.666 234.175 192.647 234.211 192.651C236.75 192.917 239.035 194.149 240.645 196.12C242.257 198.095 243.004 200.577 242.748 203.107C242.745 203.141 242.728 203.172 242.702 203.194C242.677 203.215 242.637 203.233 242.604 203.233ZM234.303 192.922C233.864 197.919 237.51 202.383 242.502 202.961C242.715 200.541 241.987 198.174 240.444 196.284C238.903 194.398 236.727 193.207 234.303 192.922Z" fill="#000712"/>
<path d="M72.1613 54.1126C69.6788 50.8187 67.7939 50.1208 65.3558 50.137V65.0914C66.2421 64.6761 67.1386 64.2311 68.1317 63.8054C71.3886 62.4104 78.6803 69.4481 81.0037 61.866C82.6996 56.3116 75.7295 58.8424 72.1613 54.1126Z" fill="white"/>
<path d="M76.9298 65.5791C75.5775 65.5791 74.1002 65.0792 72.6553 64.5905C70.9232 64.0045 69.2874 63.4512 68.1828 63.9245C67.4651 64.2319 66.7951 64.551 66.1473 64.8597C65.8997 64.9774 65.655 65.0942 65.4109 65.2086C65.3704 65.2276 65.3233 65.2246 65.2863 65.2005C65.2489 65.1767 65.2261 65.1354 65.2261 65.0911V50.1367C65.2261 50.0656 65.2838 50.0076 65.3547 50.0071C65.3836 50.0068 65.413 50.0068 65.4418 50.0068C67.8424 50.0068 69.7406 50.6847 72.2643 54.0344C73.7938 56.0613 75.9229 56.7219 77.8019 57.3049C80.2157 58.0539 82.1225 58.6455 81.1278 61.9038C80.6218 63.5535 79.8622 64.6191 78.8042 65.161C78.2223 65.4596 77.5907 65.5791 76.9298 65.5791ZM69.1612 63.4869C70.2025 63.4869 71.4444 63.907 72.7383 64.3449C74.8386 65.0552 77.0103 65.7895 78.6862 64.9303C79.6783 64.4219 80.396 63.4069 80.8796 61.8278C81.7989 58.8166 80.0901 58.2864 77.7249 57.5525C75.9037 56.9876 73.6373 56.2844 72.0577 54.1904C69.6145 50.9483 67.7837 50.275 65.4854 50.2661V64.8868C65.6677 64.8007 65.851 64.7133 66.0359 64.6254C66.6862 64.3157 67.3583 63.9957 68.0805 63.686C68.4071 63.5462 68.7703 63.4869 69.1612 63.4869Z" fill="black"/>
<path d="M78.1268 61.6117C78.0655 61.6117 78.0113 61.5684 77.9992 61.5061C77.7799 60.3417 76.8637 59.2799 75.5495 58.6664C74.338 58.1012 72.9756 57.9528 71.6842 57.8495C71.6128 57.8439 71.5596 57.7813 71.5652 57.7099C71.5712 57.6383 71.6325 57.5861 71.7044 57.5912C73.0197 57.6962 74.4084 57.8479 75.6588 58.4314C77.0491 59.0804 78.0194 60.2118 78.2544 61.458C78.2676 61.5284 78.221 61.5962 78.1506 61.6094C78.1425 61.6109 78.1344 61.6117 78.1268 61.6117Z" fill="black"/>
<path d="M174.682 30.5726C174.682 30.5726 176.123 30.3738 178.359 31.0198C180.596 31.6658 183.08 30.5726 183.18 28.7836C183.279 26.9947 178.359 26.4978 177.266 25.0567C176.173 23.6156 176.223 19.0439 173.042 19.3421C169.862 19.6402 169.961 22.2242 167.079 21.9758C164.197 21.7273 162.706 21.3298 160.42 24.361C158.135 27.3923 153.666 25.7685 154.755 29.3303C156.242 34.1901 160.917 29.6781 163.004 30.5726C165.091 31.467 166.533 32.5106 169.166 32.4609C171.8 32.4112 174.682 30.5726 174.682 30.5726Z" fill="white"/>
<path d="M168.989 32.5915C166.992 32.5915 165.647 31.9516 164.226 31.2754C163.82 31.0822 163.401 30.8827 162.953 30.691C162.261 30.3934 161.22 30.7464 160.119 31.1194C158.732 31.5894 157.297 32.0751 156.142 31.4828C155.453 31.1293 154.959 30.4375 154.631 29.3676C153.979 27.2337 155.283 26.8293 156.792 26.361C157.99 25.9898 159.346 25.5692 160.317 24.2823C162.478 21.4157 163.983 21.557 166.476 21.79C166.673 21.8085 166.878 21.8277 167.09 21.846C168.514 21.968 169.165 21.3876 169.921 20.7148C170.632 20.0805 171.439 19.3613 173.03 19.2122C175.335 19.0012 176.024 21.2316 176.577 23.0278C176.818 23.8115 177.046 24.5517 177.369 24.9777C177.815 25.5654 178.991 26.0113 180.128 26.4428C181.722 27.0475 183.371 27.6728 183.309 28.79C183.27 29.4816 182.886 30.12 182.227 30.5877C181.203 31.3147 179.672 31.5337 178.323 31.1438C176.307 30.5611 174.931 30.6758 174.726 30.6971C174.417 30.891 171.707 32.5418 169.169 32.5897C169.108 32.5907 169.048 32.5915 168.989 32.5915ZM162.344 30.321C162.601 30.321 162.839 30.36 163.055 30.4524C163.507 30.6464 163.929 30.8472 164.338 31.0412C165.835 31.7538 167.138 32.375 169.164 32.3304C171.731 32.282 174.584 30.4806 174.612 30.4623C174.628 30.4524 174.645 30.4459 174.664 30.4433C174.723 30.4352 176.157 30.2481 178.395 30.8946C179.67 31.263 181.114 31.0587 182.077 30.376C182.497 30.0782 183.007 29.5588 183.05 28.7758C183.101 27.848 181.543 27.257 180.037 26.6852C178.811 26.2205 177.653 25.7814 177.163 25.1341C176.812 24.672 176.578 23.9103 176.329 23.1043C175.776 21.3084 175.145 19.2739 173.054 19.4704C171.548 19.6117 170.809 20.2709 170.093 20.9085C169.327 21.5912 168.602 22.2382 167.068 22.1043C166.855 22.086 166.65 22.0668 166.452 22.0483C163.965 21.8158 162.597 21.6885 160.523 24.4383C159.503 25.792 158.042 26.2448 156.869 26.6087C155.324 27.0881 154.302 27.4048 154.879 29.2916C155.185 30.2911 155.637 30.9323 156.261 31.2521C157.318 31.7938 158.7 31.3263 160.036 30.8738C160.869 30.5917 161.669 30.321 162.344 30.321Z" fill="black"/>
<path d="M156.597 29.2121C156.59 29.2121 156.582 29.2114 156.574 29.2099C156.503 29.1967 156.457 29.1288 156.47 29.0584C156.623 28.2448 157.255 27.5072 158.16 27.085C158.968 26.7075 159.863 26.61 160.71 26.5424C160.787 26.537 160.844 26.5897 160.85 26.6611C160.855 26.7325 160.802 26.7951 160.731 26.8007C159.907 26.8665 159.039 26.9607 158.269 27.32C157.44 27.7067 156.863 28.3747 156.725 29.1066C156.713 29.1688 156.659 29.2121 156.597 29.2121Z" fill="black"/>
<path d="M62.8911 143.205C62.8911 143.205 64.9077 142.927 68.0369 143.831C71.1661 144.735 74.643 143.205 74.7821 140.701C74.9211 138.198 68.0369 137.503 66.5071 135.486C64.9772 133.469 65.0468 127.072 60.5963 127.489C56.1459 127.906 56.285 131.522 52.2518 131.175C48.2186 130.827 46.1324 130.271 42.9337 134.513C39.7349 138.754 33.4818 136.482 35.0063 141.466C37.0865 148.267 43.6291 141.953 46.5497 143.205C49.4702 144.456 51.4868 145.917 55.1724 145.847C58.8579 145.778 62.8911 143.205 62.8911 143.205Z" fill="white"/>
<path d="M54.9247 145.979C52.1417 145.979 50.2653 145.087 48.282 144.143C47.7133 143.873 47.1253 143.593 46.4978 143.324C45.5127 142.901 44.0465 143.397 42.4948 143.922C40.5631 144.576 38.5662 145.252 36.9698 144.434C36.0187 143.946 35.3355 142.988 34.8817 141.504C33.9838 138.568 35.6991 138.035 37.8713 137.362C39.5543 136.84 41.4611 136.249 42.8295 134.435C45.8359 130.448 47.9295 130.643 51.4013 130.967C51.6783 130.993 51.965 131.02 52.2623 131.046C54.2825 131.219 55.1962 130.399 56.2618 129.45C57.2519 128.568 58.3742 127.567 60.5834 127.36C63.768 127.059 64.7241 130.167 65.4924 132.663C65.8318 133.764 66.1518 134.805 66.6097 135.408C67.2428 136.242 68.8953 136.869 70.4937 137.475C72.7069 138.315 74.9956 139.183 74.911 140.709C74.8578 141.66 74.3281 142.54 73.4185 143.185C71.9969 144.193 69.8697 144.495 68.0004 143.955C65.1278 143.126 63.183 143.303 62.9343 143.33C62.5823 143.549 58.7009 145.91 55.1744 145.977C55.0903 145.979 55.0068 145.979 54.9247 145.979ZM45.6257 142.906C45.9782 142.906 46.3053 142.96 46.6001 143.086C47.2322 143.357 47.8227 143.637 48.3935 143.909C50.4947 144.909 52.3165 145.769 55.1693 145.718C58.7768 145.65 62.7804 143.121 62.8204 143.095C62.8361 143.086 62.8538 143.079 62.8725 143.077C62.9566 143.065 64.9505 142.805 68.0723 143.706C69.8713 144.225 71.9087 143.938 73.2686 142.973C74.1123 142.375 74.6036 141.565 74.6517 140.694C74.7262 139.358 72.5276 138.524 70.4015 137.718C68.6943 137.07 67.0812 136.458 66.403 135.564C65.9179 134.925 65.5907 133.863 65.2443 132.739C64.4648 130.208 63.5826 127.341 60.6077 127.618C58.4831 127.817 57.4413 128.746 56.434 129.644C55.3704 130.592 54.3641 131.486 52.24 131.304C51.9422 131.278 51.655 131.252 51.377 131.225C47.8824 130.899 45.9564 130.72 43.0362 134.591C41.6181 136.472 39.5831 137.103 37.9483 137.61C35.7558 138.289 34.3069 138.739 35.1299 141.428C35.5619 142.841 36.2025 143.749 37.0883 144.203C38.5859 144.971 40.5307 144.313 42.4117 143.677C43.574 143.283 44.6892 142.906 45.6257 142.906Z" fill="black"/>
<path d="M37.5838 141.25C37.5762 141.25 37.5681 141.249 37.56 141.248C37.4896 141.234 37.443 141.167 37.4562 141.096C37.6684 139.974 38.5415 138.955 39.792 138.372C40.9158 137.848 42.1627 137.712 43.3433 137.617C43.4147 137.614 43.4765 137.665 43.4825 137.736C43.4881 137.808 43.4349 137.87 43.3635 137.876C42.2068 137.968 40.9867 138.101 39.9014 138.607C38.7264 139.155 37.9075 140.104 37.7115 141.144C37.6993 141.207 37.6451 141.25 37.5838 141.25Z" fill="black"/>
<path d="M41.6861 186.943C41.6375 186.514 40.5385 176.409 44.424 172.083C45.5717 170.805 47.0282 170.16 48.8115 170.173C50.226 170.182 51.4603 170.73 52.4797 171.805C56.4043 175.94 55.9642 186.479 55.9434 186.925L55.4258 186.901C55.4304 186.794 55.876 176.136 52.1029 172.161C51.1847 171.194 50.0761 170.699 48.8084 170.692C48.7953 170.692 48.7821 170.692 48.7689 170.692C47.1777 170.692 45.8457 171.276 44.81 172.429C41.0789 176.584 42.1901 186.781 42.2017 186.884L41.6861 186.943Z" fill="black"/>
<path d="M40.1525 181.499H36.3978L31.5382 216.467H40.1525V181.499Z" fill="#282F77"/>
<path d="M74.3148 216.467H40.1532V181.497H66.9312L68.5326 189.072C68.5326 189.079 68.5326 189.079 68.5326 189.086L74.3148 216.467Z" fill="#0217EB"/>
<path d="M40.2826 216.598H31.3897L31.41 216.45L36.2851 181.37H40.2826V216.598ZM31.6875 216.338H40.0233V181.629H36.511L31.6875 216.338Z" fill="black"/>
<path d="M74.4717 216.598H40.0236V181.37H67.0349L67.0562 181.473L74.4717 216.598ZM40.2829 216.338H74.1516L66.8242 181.629H40.2829V216.338Z" fill="black"/>
<path d="M47.428 187.778C47.3793 187.35 46.2803 177.245 50.1659 172.919C51.3044 171.651 52.766 171.009 54.5103 171.009C54.5249 171.009 54.5391 171.009 54.5533 171.009C55.9678 171.017 57.2021 171.566 58.2216 172.64C62.1461 176.776 61.706 187.314 61.6852 187.761L61.1676 187.737C61.1722 187.63 61.6179 176.972 57.8448 172.997C56.9266 172.03 55.8179 171.535 54.5503 171.527C52.957 171.535 51.5961 172.102 50.5518 173.265C46.8207 177.42 47.9319 187.617 47.9435 187.72L47.428 187.778Z" fill="black"/>
</svg>
