<svg xmlns="http://www.w3.org/2000/svg" width="1741.033" height="1836.188" viewBox="0 0 1741.033 1836.188">
  <path id="_156678446816297322663947" data-name="156678446816297322663947" d="M1743.074,1611.88,1556.606,679.54a189.948,189.948,0,0,0-186.152-152.91h-83.262V414.559a411.559,411.559,0,1,0-823.119,0V526.63H380.813A189.948,189.948,0,0,0,194.661,679.54L8.193,1611.88a189.95,189.95,0,0,0,186.152,227.307H1555.656a189.949,189.949,0,0,0,186.151-227.307ZM527.391,414.559a348.243,348.243,0,1,1,696.485,0V526.63H527.391Z" transform="translate(-4.483 -3)" fill="#0051e9"/>
</svg>
