<svg xmlns="http://www.w3.org/2000/svg" width="1760.115" height="1663.356" viewBox="0 0 1760.115 1663.356">
  <path id="_115750911716285249723802" data-name="115750911716285249723802" d="M418.485,1645.789,40.842,1352.436a97.783,97.783,0,0,1,1.271-155.477L433.25,903.607a97.784,97.784,0,0,1,117.341,156.455L394.137,1177.4H1665.331a97.784,97.784,0,0,1,0,195.568H386.118l152.348,118.319a97.808,97.808,0,0,1-119.981,154.5Zm777.482-898.637a97.775,97.775,0,0,1,19.557-136.9l156.455-117.341H100.784a97.784,97.784,0,1,1,0-195.568H1380L1227.649,179.027a97.784,97.784,0,1,1,119.981-154.4l377.643,293.353A97.781,97.781,0,0,1,1724,473.357L1332.865,766.709a97.776,97.776,0,0,1-136.9-19.557Z" transform="translate(-3 -2.99)" fill="#0051e9"/>
</svg>
